<svg width="573" height="443" viewBox="0 0 573 443" fill="none" xmlns="http://www.w3.org/2000/svg">
<path d="M572.4 388.802H0V388.506H572.4V388.802Z" fill="#E7E8E5"/>
<path d="M332.23 396.881H361.376V396.585H332.23V396.881Z" fill="#E7E8E5"/>
<path d="M452.323 403.302H521.392V403.005H452.323V403.302Z" fill="#E7E8E5"/>
<path d="M254.671 397.03H326.03V396.733H254.671V397.03Z" fill="#E7E8E5"/>
<path d="M193.471 405.905H208.401V405.608H193.471V405.905Z" fill="#E7E8E5"/>
<path d="M222.902 405.905H290.875V405.608H222.902V405.905Z" fill="#E7E8E5"/>
<path d="M60.0554 400.896H104.077V400.599H60.0554V400.896Z" fill="#E7E8E5"/>
<path d="M50.2742 0.296136C46.8283 0.296136 44.0257 3.20066 44.0257 6.77075V328.817C44.0257 332.388 46.8283 335.293 50.2742 335.293H271.334C274.777 335.293 277.581 332.388 277.581 328.817V6.77075C277.581 3.20066 274.777 0.296136 271.334 0.296136H50.2742ZM271.334 335.589H50.2742C46.6709 335.589 43.7395 332.552 43.7395 328.817V6.77075C43.7395 3.03811 46.6709 -0.000481556 50.2742 -0.000481556H271.334C274.935 -0.000481556 277.867 3.03811 277.867 6.77075V328.817C277.867 332.552 274.935 335.589 271.334 335.589Z" fill="#E7E8E5"/>
<path d="M297.891 0.296136C294.446 0.296136 291.644 3.20066 291.644 6.77075V328.817C291.644 332.388 294.446 335.293 297.891 335.293H518.951C522.395 335.293 525.199 332.388 525.199 328.817V6.77075C525.199 3.20066 522.395 0.296136 518.951 0.296136H297.891ZM518.951 335.589H297.891C294.288 335.589 291.357 332.552 291.357 328.817V6.77075C291.357 3.03811 294.288 -0.000481556 297.891 -0.000481556H518.951C522.553 -0.000481556 525.485 3.03811 525.485 6.77075V328.817C525.485 332.552 522.553 335.589 518.951 335.589Z" fill="#E7E8E5"/>
<path d="M224.337 285.6H148.321L143.707 230.429H219.722L224.337 285.6Z" fill="#E2E2E0"/>
<path d="M228.274 285.6H152.259L147.645 230.429H223.659L228.274 285.6Z" fill="#EDEDEB"/>
<path d="M162.65 273.753L160.115 242.276H213.267L215.802 273.753H162.65Z" fill="white"/>
<path d="M232.508 388.502H241.427V285.6H232.508V388.502Z" fill="#E2E2E0"/>
<path d="M238.047 388.502H244.241V285.6H238.047V388.502Z" fill="#EDEDEB"/>
<path d="M157.913 296.958H244.241V285.6H157.913V296.958Z" fill="#EDEDEB"/>
<path d="M152.047 388.502H160.965V296.958H152.047V388.502Z" fill="#E2E2E0"/>
<path d="M157.585 388.502H163.78V296.958H157.585V388.502Z" fill="#EDEDEB"/>
<path d="M97.4772 388.502H88.5581V296.958H97.4772V388.502Z" fill="#E2E2E0"/>
<path d="M100.292 388.502H94.0977V296.958H100.292V388.502Z" fill="#EDEDEB"/>
<path d="M176.064 388.502H184.984V296.958H176.064V388.502Z" fill="#E2E2E0"/>
<path d="M181.604 388.502H187.798V296.958H181.604V388.502Z" fill="#EDEDEB"/>
<path d="M88.5581 296.958H157.912V285.6H88.5581V296.958Z" fill="#E2E2E0"/>
<path d="M148.261 183.803H416.523V29.022H148.261V183.803Z" fill="#DADBD8"/>
<path d="M149.615 183.803H431.254V29.022H149.615V183.803Z" fill="#F3F2F1"/>
<path d="M154.217 179.035H426.652V33.7897H154.217V179.035Z" fill="white"/>
<path d="M264.523 179.035L315.96 33.7897H231.074L179.638 179.035H264.523Z" fill="#F3F2F1"/>
<path d="M346.233 179.035L397.67 33.7897H333.635L282.198 179.035H346.233Z" fill="#F3F2F1"/>
<path d="M501.549 388.505H478.746V240.676H501.549V388.505Z" fill="#E2E2E0"/>
<path d="M495.554 388.505H501.55V377.122H489.267L495.554 388.505Z" fill="#FAFAF9"/>
<path d="M268.496 388.505H291.299V240.676H268.496V388.505Z" fill="#E2E2E0"/>
<path d="M286.066 385.434H501.549V240.677H286.066V385.434Z" fill="#FAFAF9"/>
<path d="M291.29 286.197H496.326V247.686H291.29V286.197ZM497.471 287.384H290.145V246.499H497.471V287.384Z" fill="#E2E2E0"/>
<path d="M316.126 252.805C319.999 260.673 325.266 265.162 330.67 265.162H460.973C466.377 265.162 471.644 260.673 475.518 252.805H316.126ZM460.973 266.349H330.67C324.618 266.349 318.792 261.291 314.688 252.47L314.292 251.619H477.352L476.956 252.47C472.852 261.291 467.026 266.349 460.973 266.349Z" fill="#E2E2E0"/>
<path d="M292.062 388.505H286.066V377.122H298.348L292.062 388.505Z" fill="#FAFAF9"/>
<path d="M291.29 332.31H496.326V293.799H291.29V332.31ZM497.471 333.497H290.145V292.612H497.471V333.497Z" fill="#E2E2E0"/>
<path d="M316.126 298.918C319.999 306.786 325.266 311.276 330.67 311.276H460.973C466.378 311.276 471.644 306.786 475.518 298.918H316.126ZM460.973 312.463H330.67C324.618 312.463 318.792 307.404 314.688 298.584L314.292 297.732H477.352L476.956 298.584C472.852 307.404 467.026 312.463 460.973 312.463Z" fill="#E2E2E0"/>
<path d="M291.29 378.425H496.326V339.914H291.29V378.425ZM497.471 379.612H290.145V338.727H497.471V379.612Z" fill="#E2E2E0"/>
<path d="M316.126 345.033C319.999 352.901 325.266 357.391 330.67 357.391H460.973C466.378 357.391 471.644 352.901 475.518 345.033H316.126ZM460.973 358.577H330.67C324.618 358.577 318.792 353.518 314.688 344.698L314.292 343.847H477.352L476.956 344.698C472.852 353.518 467.026 358.577 460.973 358.577Z" fill="#E2E2E0"/>
<path d="M138.501 260.23V263.099H136.729L135.266 285.6H113.704L112.242 263.099H110.47V260.23H138.501Z" fill="#E2E2E0"/>
<path d="M131.405 204.38C129.632 190.976 112.178 187.147 90.0292 186.656C68.9524 186.19 62.2017 178.461 62.2017 178.461C62.2017 178.461 62.2678 209.759 92.6386 221.091C121.477 231.851 133.18 217.807 131.405 204.38Z" fill="#E2E2E0"/>
<path d="M120.637 234.769C121.007 229.256 129.501 219.124 149.93 223.729C164.702 227.059 170.194 219.124 170.194 219.124C170.194 219.124 168.826 241.522 146.609 248.258C125.513 254.653 119.987 244.464 120.637 234.769Z" fill="#E2E2E0"/>
<path d="M125.299 268.677C125.522 268.677 125.745 268.58 125.901 268.389C127.382 266.575 126.17 262.23 124.494 256.217C122.342 248.501 119.664 238.898 121.932 231.924C123.212 227.987 124.796 224.517 126.327 221.16C129.533 214.132 132.302 208.062 129.993 201.722C129.839 201.301 129.386 201.088 128.978 201.248C128.572 201.407 128.366 201.878 128.519 202.299C130.592 207.989 128.082 213.493 124.903 220.463C123.423 223.703 121.749 227.376 120.439 231.403C118.013 238.86 120.766 248.736 122.979 256.671C124.284 261.35 125.634 266.188 124.698 267.333C124.417 267.678 124.458 268.193 124.79 268.485C124.938 268.614 125.119 268.677 125.299 268.677Z" fill="#E2E2E0"/>
<path d="M508.164 428.654C508.164 436.075 408.788 442.09 286.2 442.09C163.612 442.09 64.2356 436.075 64.2356 428.654C64.2356 421.235 163.612 415.22 286.2 415.22C408.788 415.22 508.164 421.235 508.164 428.654Z" fill="#F3F2F1"/>
<path d="M286.154 363.172H123.593L114.695 92.221H277.256L286.154 363.172Z" fill="#0253CC"/>
<path d="M294.267 354.765H131.706L122.807 83.8142H285.369L294.267 354.765Z" fill="#406FBF"/>
<path d="M294.267 354.765H131.706L123.083 92.2215L122.807 83.8142H285.369L294.267 354.765ZM205.084 114.134C179.83 114.134 160.054 135.353 160.913 161.527C161.773 187.7 182.942 208.918 208.197 208.918C233.451 208.918 253.227 187.7 252.368 161.527C251.508 135.353 230.338 114.134 205.084 114.134Z" fill="#2674F0"/>
<path d="M252.368 161.527C253.228 187.701 233.451 208.918 208.197 208.918C182.943 208.918 161.773 187.701 160.913 161.527C160.055 135.354 179.83 114.135 205.084 114.135C230.338 114.135 251.508 135.354 252.368 161.527Z" fill="#F1F1F1"/>
<path d="M244.379 161.521C244.601 168.277 243.156 174.619 240.43 180.152C234.465 192.343 222.271 200.634 207.924 200.634C193.578 200.634 180.84 192.343 174.073 180.152C170.984 174.619 169.122 168.277 168.9 161.521C168.192 139.917 184.509 122.408 205.355 122.408C226.201 122.408 243.67 139.917 244.379 161.521Z" fill="white"/>
<path d="M207.924 200.634C193.578 200.634 180.84 192.343 174.073 180.152C183.358 173.574 194.635 169.734 206.909 169.734C219.185 169.734 230.713 173.574 240.43 180.152C234.466 192.343 222.271 200.634 207.924 200.634Z" fill="#07C907"/>
<path d="M206.772 165.563C197.488 165.563 189.706 157.762 189.39 148.14C189.074 138.517 196.344 130.717 205.629 130.717C214.912 130.717 222.695 138.517 223.011 148.14C223.327 157.762 216.057 165.563 206.772 165.563Z" fill="#07C907"/>
<path d="M261.614 256.643H157.914L157.212 235.286H260.914L261.614 256.643Z" fill="white"/>
<path d="M262.869 294.816H159.167L158.466 273.459H262.167L262.869 294.816Z" fill="white"/>
<path d="M215.665 293.977L211.14 294.614L210.685 289.013C209.722 288.573 209.025 287.688 208.828 286.645C208.506 284.948 209.612 283.376 211.293 283.139C212.966 282.903 214.594 284.09 214.915 285.787C215.112 286.83 214.776 287.86 214.026 288.542L215.665 293.977ZM222.845 276.395L197.856 279.916C196.829 280.06 196.154 281.03 196.348 282.059L199.629 299.415C199.825 300.452 200.822 301.179 201.848 301.034L226.838 297.512C227.865 297.368 228.541 296.405 228.346 295.368L225.065 278.012C224.87 276.983 223.872 276.25 222.845 276.395Z" fill="#0253CC"/>
<path d="M220.378 275.464C219.465 275.593 218.584 274.95 218.41 274.027L218.088 272.329C217.203 267.652 212.889 264.124 208.221 264.545C203.228 264.996 199.883 269.564 200.816 274.504L201.185 276.455C201.36 277.378 200.761 278.228 199.848 278.358C198.934 278.486 198.053 277.843 197.879 276.921L197.566 275.265C196.333 268.749 200.292 262.485 206.695 261.33C213.426 260.116 220.064 264.821 221.347 271.61L221.716 273.562C221.89 274.484 221.291 275.336 220.378 275.464Z" fill="#0253CC"/>
<path d="M245.751 324.721H178.249L177.793 310.82H245.294L245.751 324.721Z" fill="#0253CC"/>
<path d="M213.182 245.966C213.253 248.123 211.623 249.873 209.542 249.873C207.46 249.873 205.715 248.123 205.644 245.966C205.573 243.808 207.204 242.06 209.284 242.06C211.366 242.06 213.111 243.808 213.182 245.966Z" fill="#17282F"/>
<path d="M196.957 245.966C197.028 248.123 195.398 249.873 193.317 249.873C191.234 249.873 189.489 248.123 189.418 245.966C189.348 243.808 190.978 242.06 193.06 242.06C195.141 242.06 196.886 243.808 196.957 245.966Z" fill="#17282F"/>
<path d="M180.732 245.966C180.803 248.123 179.173 249.873 177.091 249.873C175.009 249.873 173.265 248.123 173.194 245.966C173.123 243.808 174.753 242.06 176.834 242.06C178.916 242.06 180.661 243.808 180.732 245.966Z" fill="#17282F"/>
<path d="M229.408 245.966C229.479 248.123 227.848 249.873 225.767 249.873C223.686 249.873 221.941 248.123 221.87 245.966C221.799 243.808 223.428 242.06 225.511 242.06C227.592 242.06 229.338 243.808 229.408 245.966Z" fill="#17282F"/>
<path d="M245.633 245.966C245.704 248.123 244.075 249.873 241.993 249.873C239.911 249.873 238.167 248.123 238.096 245.966C238.025 243.808 239.655 242.06 241.736 242.06C243.819 242.06 245.562 243.808 245.633 245.966Z" fill="#17282F"/>
<path d="M382.26 141.579C383.787 144.112 385.049 146.543 386.357 149.067C387.661 151.566 388.842 154.136 389.998 156.728C392.275 161.927 394.313 167.292 395.836 173.019C396.039 173.721 396.196 174.465 396.365 175.196L396.616 176.294L396.741 176.842L396.888 177.747C397.217 180.157 396.928 182.124 396.531 183.859C395.71 187.315 394.387 190.073 392.97 192.705C390.073 197.915 386.694 202.352 382.797 206.555L377.976 202.772C380.354 198.098 382.702 193.201 384.43 188.491C385.266 186.15 385.97 183.765 386.176 181.808C386.277 180.847 386.21 180.02 386.083 179.712L385.629 178.262C385.442 177.668 385.274 177.076 385.048 176.475C383.398 171.688 381.3 166.879 379.016 162.138C376.763 157.415 374.268 152.606 371.812 148.117L382.26 141.579Z" fill="#F46B74"/>
<path d="M379.199 201.075L373.943 203.966L379.985 211.298C379.985 211.298 383.757 208.654 383.927 204.616L379.199 201.075Z" fill="#F46B74"/>
<path d="M366.87 208.487L373.345 213.812L379.986 211.299L373.943 203.966L366.87 208.487Z" fill="#F46B74"/>
<path d="M344.758 102.762C344.628 103.422 344.186 103.886 343.77 103.798C343.354 103.71 343.122 103.104 343.251 102.444C343.38 101.786 343.822 101.321 344.239 101.408C344.655 101.496 344.887 102.102 344.758 102.762Z" fill="#17282F"/>
<path d="M344.245 103.898C344.245 103.898 342.051 107.399 340.098 108.899C341.009 110.225 343.022 110.13 343.022 110.13L344.245 103.898Z" fill="#F14358"/>
<path d="M342.182 127.172L342.231 119.395L352.168 120.64C352.168 120.64 351.998 127.326 346.449 129.292L342.182 127.172Z" fill="#F46B74"/>
<path d="M345.038 113.796L352.035 115.879L352.168 120.641L342.231 119.396L345.038 113.796Z" fill="#F46B74"/>
<path d="M350.137 126.558C350.136 126.557 350.134 126.556 350.132 126.556C350.367 126.238 350.576 125.91 350.76 125.58C350.76 125.582 350.76 125.584 350.76 125.585C350.577 125.914 350.371 126.24 350.137 126.558ZM352.082 117.567L352.035 115.879L345.04 113.796L345.043 113.79L352.037 115.88L352.082 117.567ZM343.68 116.504C343.68 116.502 343.68 116.499 343.68 116.497L344.501 114.865L343.68 116.504Z" fill="#BABCBA"/>
<path d="M350.132 126.556C347.411 125.265 345.199 122.778 344.218 119.644L352.163 120.64C352.163 120.649 352.162 120.686 352.159 120.748L350.17 121.905C350.455 123.085 350.673 124.339 350.76 125.58C350.575 125.91 350.367 126.238 350.132 126.556Z" fill="#EA5B5B"/>
<path d="M352.163 120.641L344.218 119.645C343.909 118.657 343.723 117.604 343.68 116.505L344.501 114.866L345.04 113.797L352.035 115.879L352.082 117.568L352.163 120.637C352.163 120.637 352.163 120.638 352.163 120.641Z" fill="#EA5B5B"/>
<path d="M347.806 99.5898L348.066 99.4854C348.219 99.3371 348.23 99.0868 348.087 98.9266C346.655 97.3201 344.917 97.606 344.841 97.6179C344.633 97.6547 344.493 97.8588 344.53 98.0747C344.565 98.2895 344.764 98.433 344.967 98.3986C345.024 98.3891 346.383 98.1827 347.526 99.4641L347.806 99.5898Z" fill="#17282F"/>
<path d="M362.432 114.768C361.278 120.875 360.581 129.333 364.702 133.406C364.702 133.406 363.092 139.6 352.146 139.6C340.11 139.6 346.356 134.164 346.356 134.164C351.359 132.556 351.315 126.649 350.17 121.906L362.432 114.768Z" fill="#F46B74"/>
<path d="M366.957 137.49C368.028 135.916 367.985 130.945 366.841 130.068C364.994 128.653 357.091 128.328 346.445 130.864C347.591 135.679 345.137 138.203 345.137 138.203L366.957 137.49Z" fill="#406FBF"/>
<path d="M401.425 417.828L401.201 417.905C401.05 417.98 400.955 418.09 400.911 418.242C400.809 418.598 400.936 418.71 400.979 418.748C401.411 419.128 403.019 418.777 404.152 418.307C403.384 418.026 402.141 417.668 401.425 417.828ZM402.735 419.162C401.928 419.343 401.119 419.392 400.73 419.049C400.568 418.904 400.403 418.628 400.546 418.13C400.621 417.869 400.786 417.672 401.037 417.548C402.125 417.011 404.623 418.065 404.729 418.11L404.847 418.288L404.739 418.472C404.357 418.663 403.546 418.98 402.735 419.162Z" fill="#406FBF"/>
<path d="M402.417 415.537L402.334 415.562C402.098 415.646 402.101 415.766 402.103 415.817C402.115 416.377 403.401 417.502 404.344 417.958C404.108 417.29 403.57 415.975 402.881 415.61C402.723 415.526 402.571 415.502 402.417 415.537ZM404.697 418.486L404.603 418.483C403.692 418.208 401.744 416.774 401.721 415.827C401.717 415.655 401.774 415.344 402.208 415.188C402.491 415.086 402.775 415.11 403.054 415.258C404.13 415.827 404.81 418.139 404.839 418.237L404.791 418.433L404.697 418.486Z" fill="#406FBF"/>
<path d="M342.008 418.944C341.874 418.944 341.749 418.957 341.639 418.989C341.463 419.038 341.342 419.128 341.266 419.266C341.131 419.511 341.18 419.632 341.228 419.702C341.604 420.242 343.638 420.254 345.135 420.034C344.389 419.638 342.949 418.944 342.008 418.944ZM343.285 420.562C342.252 420.562 341.253 420.414 340.919 419.934C340.801 419.765 340.71 419.478 340.935 419.07C341.06 418.84 341.265 418.684 341.538 418.607C342.879 418.23 345.693 419.891 345.813 419.962L345.906 420.165L345.755 420.327C345.241 420.433 344.248 420.562 343.285 420.562Z" fill="#406FBF"/>
<path d="M343.752 416.949L343.638 416.954C343.296 416.99 343.273 417.13 343.266 417.176C343.178 417.742 344.486 419.161 345.478 419.78C345.373 419.122 345.087 417.778 344.415 417.205C344.213 417.033 343.994 416.949 343.752 416.949ZM345.717 420.333L345.639 420.314C344.667 419.863 342.743 418.058 342.889 417.113C342.924 416.892 343.076 416.616 343.6 416.56C343.991 416.52 344.344 416.634 344.657 416.9C345.681 417.772 345.898 420.02 345.907 420.115L345.828 420.295L345.717 420.333Z" fill="#406FBF"/>
<path d="M354.572 420.135H346.519L345.717 400.808H353.769L354.572 420.135Z" fill="#F46B74"/>
<path d="M413.672 416.27L405.803 418.035L397.901 400.036L405.771 398.27L413.672 416.27Z" fill="#F46B74"/>
<path d="M405.046 417.218L413.887 415.233C414.209 415.162 414.536 415.33 414.674 415.64L417.743 422.541C418.061 423.257 417.639 424.097 416.894 424.25C413.796 424.887 412.257 425.037 408.368 425.909C405.977 426.446 400.577 427.81 397.273 428.55C394.042 429.276 392.831 426.003 394.12 425.394C399.896 422.658 402.31 420.249 403.874 418.006C404.155 417.601 404.575 417.322 405.046 417.218Z" fill="#17282F"/>
<path d="M346.572 419.167H355.365C355.695 419.167 355.98 419.404 356.052 419.738L357.642 427.155C357.807 427.923 357.244 428.653 356.484 428.64C353.312 428.584 348.728 428.392 344.742 428.392C340.079 428.392 336.053 428.654 330.586 428.654C327.28 428.654 326.363 425.191 327.747 424.878C334.046 423.449 339.189 423.296 344.633 419.817C345.225 419.44 345.877 419.167 346.572 419.167Z" fill="#17282F"/>
<path d="M379.12 135.293C386.666 137.086 392.888 157.053 392.888 157.053L377.734 169.024C377.734 169.024 372.171 163.589 369.696 153.601C367.102 143.137 371.403 133.459 379.12 135.293Z" fill="#406FBF"/>
<path d="M377.733 169.024C377.733 169.024 376.887 168.199 375.709 166.599C375.709 166.597 375.709 166.599 375.709 166.597C376.849 168.143 377.677 168.969 377.735 169.024H377.733ZM378.341 168.545L378.405 168.493C378.212 164.441 377.642 160.019 376.299 156.231C376.844 149.387 377.732 142.313 379.12 135.293C379.12 135.293 378.892 135.246 378.478 135.165C378.689 135.199 378.902 135.241 379.12 135.293C386.666 137.086 392.888 157.053 392.888 157.053L390.836 158.675L381.018 166.43L378.341 168.545Z" fill="#2251AA"/>
<path d="M339.436 159.124C337.551 161.23 335.674 163.103 333.729 165.031C332.764 165.989 331.777 166.93 330.768 167.85L329.248 169.23L328.864 169.573C328.679 169.739 328.453 169.934 328.212 170.126C327.708 170.512 327.156 170.961 326.001 171.48C325.388 171.724 324.6 172.047 323.216 172.076C322.558 172.087 321.665 171.969 320.812 171.634C319.942 171.299 319.098 170.72 318.521 170.125C317.324 168.878 316.962 167.784 316.726 167.052C316.507 166.297 316.445 165.759 316.4 165.288C316.328 164.367 316.372 163.743 316.422 163.167C316.475 162.597 316.552 162.104 316.635 161.639C316.971 159.81 317.447 158.335 317.965 156.856C318.488 155.392 319.067 153.989 319.744 152.569C320.47 151.057 321.173 149.961 321.872 148.697C324.7 143.797 328.021 139.322 331.547 135.102C335.151 130.913 338.933 127.083 343.283 123.574L347.496 128.067C344.537 132.17 341.627 136.569 338.936 140.907C336.25 145.276 333.758 149.726 331.612 154.249C331.117 155.366 330.508 156.591 330.164 157.527C329.762 158.547 329.393 159.646 329.091 160.726C328.791 161.795 328.55 162.907 328.441 163.724C328.416 163.921 328.403 164.093 328.403 164.192C328.4 164.284 328.424 164.334 328.412 164.082C328.4 163.944 328.388 163.739 328.265 163.305C328.125 162.893 327.909 162.11 326.943 161.099C326.479 160.625 325.78 160.13 325.057 159.862C324.357 159.578 323.626 159.494 323.13 159.496C322.07 159.521 321.598 159.745 321.285 159.862C320.724 160.113 320.711 160.181 320.717 160.155L321.157 159.74L322.53 158.434L325.267 155.777C327.08 154.009 328.901 152.121 330.623 150.371L339.436 159.124Z" fill="#F46B74"/>
<path d="M377.738 169.026C377.738 169.026 377.737 169.026 377.735 169.024L378.341 168.545L377.738 169.026Z" fill="#C3C5C2"/>
<path d="M377.735 169.024C377.677 168.969 376.849 168.143 375.709 166.597C375.829 163.231 376.019 159.759 376.299 156.231C377.642 160.019 378.212 164.441 378.405 168.493L378.341 168.545L377.735 169.024Z" fill="#24427C"/>
<path d="M331.428 143.659C329.783 152.675 328.753 171.19 333.531 207.854H376.6C376.896 201.003 372.743 167.578 379.12 135.292C379.12 135.292 371.737 133.756 364.702 133.405C359.199 133.131 351.231 132.948 346.394 133.406C344.374 133.597 342.392 133.898 340.626 134.222C335.969 135.077 332.308 138.844 331.428 143.659Z" fill="#406FBF"/>
<path d="M376.6 207.854H333.532C331.445 191.847 330.466 179.298 330.163 169.49C330.164 169.489 330.166 169.488 330.168 169.487C330.208 170.769 330.261 172.1 330.325 173.479C332.09 171.398 334.095 168.744 335.62 165.908C341.257 161.855 348.745 155.286 348.75 148.969C348.75 148.105 348.611 147.245 348.307 146.398C346.168 140.423 344.961 134.284 340.634 134.284C340.506 134.284 340.375 134.289 340.243 134.301C340.37 134.272 340.497 134.246 340.626 134.222C342.392 133.898 344.374 133.597 346.395 133.406C348.526 133.204 351.266 133.127 354.136 133.127C357.776 133.127 361.625 133.252 364.702 133.405C371.737 133.756 379.12 135.292 379.12 135.292C377.732 142.313 376.844 149.387 376.299 156.23C376.019 159.759 375.829 163.23 375.71 166.596C375.71 166.599 375.71 166.596 375.71 166.599C375.592 169.954 375.542 173.211 375.542 176.328C375.542 190.927 376.617 202.487 376.616 207.034C376.616 207.093 376.616 207.152 376.615 207.209C376.614 207.445 376.609 207.66 376.6 207.854Z" fill="#2251AA"/>
<path d="M330.325 173.48C330.261 172.101 330.208 170.77 330.168 169.487C331.186 168.884 333.237 167.621 335.62 165.909C334.095 168.745 332.09 171.399 330.325 173.48Z" fill="#24427C"/>
<path d="M354.187 410.774H354.183L353.77 400.813H353.775L354.187 410.774Z" fill="#C3C5C2"/>
<path d="M354.183 410.774H346.131L346.13 410.765L345.719 400.813H353.769L354.183 410.774Z" fill="#EA5B5B"/>
<path d="M409.846 407.553L409.058 405.757L409.062 405.755L409.852 407.552L409.846 407.553Z" fill="#C3C5C2"/>
<path d="M401.978 409.318L401.189 407.521L409.058 405.756L409.846 407.553L401.978 409.318Z" fill="#EA5B5B"/>
<path d="M366.26 105.837C364.192 113.836 363.373 118.627 358.61 121.954C351.444 126.957 342.523 121.216 342.245 112.736C341.993 105.104 345.418 93.303 353.702 91.6906C361.863 90.1019 368.329 97.8353 366.26 105.837Z" fill="#F46B74"/>
<path d="M348.187 106.143C347.805 105.07 346.021 96.8028 347.696 94.6565C349.371 92.5101 368.43 94.0538 371.248 96.9286C375.924 101.697 372.68 105.953 367.561 111.444C363.712 115.573 363.563 120.227 361.622 120.911C358.219 122.108 352.944 120.982 351.885 117.218C350.827 113.454 348.187 106.143 348.187 106.143Z" fill="#17282F"/>
<path d="M368.938 87.5262C362.202 84.5529 349.572 87.8418 342.752 86.1368C342.508 89.7971 344.639 95.6666 351.459 97.2446C351.459 97.2446 361.141 99.2011 368.631 98.8855C376.121 98.5699 374.66 90.0498 368.938 87.5262Z" fill="#17282F"/>
<path d="M369.992 97.1827C369.992 97.1827 374.158 97.6679 377.116 95.7648C378.38 98.9197 371.455 99.7858 369.992 97.1827Z" fill="#17282F"/>
<path d="M351.859 106.472C351.734 108.638 350.763 110.676 349.597 112.008C347.841 114.012 346.01 112.764 345.699 110.324C345.418 108.126 345.994 104.435 348.14 103.329C350.255 102.24 352.002 103.996 351.859 106.472Z" fill="#F46B74"/>
<path d="M348.809 207.854C348.809 207.854 357.948 271.632 362.965 295.525C368.458 321.689 397.916 408.256 397.916 408.256L412.331 405.022C412.331 405.022 391.732 334.475 387.121 297.897C383.579 269.799 376.6 207.854 376.6 207.854H348.809Z" fill="#2674F0"/>
<path d="M394.465 403.268L397.152 408.67L413.369 405.032L412.002 399.979L394.465 403.268Z" fill="#17282F"/>
<path d="M362.762 294.569C362.711 294.316 362.658 294.06 362.605 293.799H362.61C362.661 294.055 362.712 294.304 362.763 294.552C362.762 294.558 362.762 294.564 362.762 294.569ZM362.372 292.612H362.368C362.048 290.994 361.714 289.243 361.369 287.384H361.371C361.716 289.242 362.051 290.994 362.372 292.612ZM361.153 286.197H361.151C360.34 281.768 359.477 276.778 358.597 271.515C359.478 276.778 360.341 281.767 361.153 286.197Z" fill="#A4A6A5"/>
<path d="M361.371 287.384H361.369C361.297 286.993 361.223 286.597 361.151 286.197H361.153C361.226 286.597 361.299 286.993 361.371 287.384Z" fill="#949696"/>
<path d="M362.61 293.798H362.605C362.527 293.412 362.448 293.016 362.368 292.612H362.372C362.452 293.016 362.531 293.412 362.61 293.798Z" fill="#949696"/>
<path d="M362.763 294.553C362.711 294.305 362.661 294.056 362.61 293.799C362.531 293.413 362.452 293.017 362.371 292.613C362.051 290.995 361.715 289.242 361.371 287.384C361.299 286.994 361.226 286.597 361.152 286.198C360.341 281.767 359.477 276.778 358.597 271.515C356.365 258.147 354.032 243.023 352.207 230.875C352.686 230.626 353.208 230.494 353.774 230.494C354.035 230.494 354.305 230.521 354.585 230.579C365.149 232.726 364.034 273.544 362.763 294.553Z" fill="#2D5BB2"/>
<path d="M333.532 207.855C333.532 207.855 332.423 270.251 333.298 295.7C334.21 322.172 343.131 408.845 343.131 408.845H356.771C356.771 408.845 357.273 323.718 357.88 297.721C358.54 269.38 361.843 207.855 361.843 207.855H333.532Z" fill="#2674F0"/>
<path d="M340.506 403.214L341.275 409.083H357.869L358.318 403.845L340.506 403.214Z" fill="#17282F"/>
<path d="M348.307 146.399C352.168 157.182 329.485 169.885 329.485 169.885L319.664 156.799C319.664 156.799 326.216 143.285 334.257 137.193C344.188 129.668 345.368 138.188 348.307 146.399Z" fill="#406FBF"/>
<path d="M329.485 169.885L329.096 169.366L319.664 156.799C319.664 156.799 326.216 143.285 334.257 137.193C336.961 135.144 339.016 134.285 340.634 134.285C344.962 134.285 346.168 140.423 348.307 146.399C348.611 147.246 348.75 148.106 348.75 148.97C348.745 155.286 341.257 161.856 335.62 165.909C333.238 167.621 331.186 168.883 330.169 169.487C330.166 169.488 330.164 169.49 330.163 169.491C329.729 169.747 329.485 169.885 329.485 169.885Z" fill="#2251AA"/>
<path d="M478.482 37.2317C478.482 52.3022 459.986 64.5205 437.17 64.5205C414.353 64.5205 395.858 52.3022 395.858 37.2317C395.858 22.1599 414.353 9.94281 437.17 9.94281C459.986 9.94281 478.482 22.1599 478.482 37.2317Z" fill="#07C907"/>
<path d="M422.304 32.5658C421.882 32.5658 421.456 32.6109 421.032 32.7011C419.414 33.0475 418.022 34.0252 417.114 35.4537C416.207 36.8834 415.89 38.5954 416.224 40.2767C416.559 41.9532 417.502 43.3947 418.884 44.3368C420.264 45.2789 421.917 45.6063 423.535 45.2599C425.156 44.9134 426.548 43.9346 427.456 42.5037C428.363 41.074 428.677 39.3619 428.343 37.6843C428.008 36.003 427.066 34.5591 425.687 33.6194C424.668 32.9253 423.499 32.5658 422.304 32.5658ZM422.27 46.5816C420.853 46.5816 419.466 46.1545 418.255 45.3287C416.618 44.2122 415.498 42.5037 415.105 40.5163C414.707 38.5254 415.082 36.4954 416.159 34.8011C417.235 33.108 418.884 31.9488 420.802 31.5383C422.723 31.1278 424.682 31.5146 426.317 32.6287C427.949 33.7416 429.068 35.4525 429.464 37.4446C429.86 39.4331 429.487 41.4608 428.413 43.1551C427.337 44.8517 425.687 46.0121 423.765 46.4226C423.267 46.5294 422.767 46.5816 422.27 46.5816ZM419.968 28.4452C414.657 29.6957 411.091 35.2413 412.018 40.8082C412.503 43.7198 414.065 46.2375 416.418 47.8998C418.77 49.5608 421.6 50.1493 424.39 49.5525C428.815 48.6057 432.131 44.8446 432.64 40.1936L432.687 39.7665L441.942 37.7863C442.477 37.6724 443.03 37.8065 443.459 38.1553C443.888 38.5029 444.147 39.0262 444.169 39.5897L444.222 40.9387C444.234 41.2804 444.469 41.5723 444.766 41.6186C445.785 41.7764 446.666 42.3945 447.182 43.3152C447.308 43.5407 447.547 43.7578 447.855 43.6925L448.39 43.5786C448.692 43.5134 448.834 43.2144 448.864 42.9557C449.034 41.4643 450.108 40.2577 451.534 39.9528C452.956 39.649 454.398 40.3182 455.123 41.6162C455.249 41.8416 455.487 42.0623 455.795 41.9947L456.342 41.8773C456.645 41.8132 456.785 41.5142 456.812 41.2567C456.932 40.1984 457.501 39.2706 458.374 38.7082C458.63 38.5432 458.733 38.179 458.614 37.861L458.147 36.5998C457.951 36.073 457.99 35.4857 458.251 34.9898C458.513 34.4938 458.969 34.145 459.503 34.0311L460.199 33.8816C460.973 33.7167 461.628 33.2421 462.046 32.5468C462.463 31.8516 462.581 31.0305 462.38 30.2356C462.003 28.7418 460.42 27.7986 458.857 28.1355L431.531 33.9801L431.326 33.6075C429.035 29.4608 424.476 27.3821 419.968 28.4452ZM422.255 50.9668C419.96 50.9668 417.719 50.2549 415.773 48.8798C413.162 47.0372 411.429 44.2419 410.89 41.0087C409.861 34.8308 413.82 28.6765 419.715 27.2872C424.569 26.147 429.498 28.291 432.105 32.6465L458.627 26.9728C460.775 26.5136 462.958 27.8413 463.487 29.9354C463.768 31.0495 463.602 32.198 463.018 33.1721C462.433 34.1474 461.516 34.8118 460.431 35.0432L459.735 35.1927C459.526 35.2366 459.357 35.3671 459.256 35.5593C459.155 35.7479 459.141 35.9734 459.216 36.1751L459.683 37.4351C460 38.2882 459.705 39.248 458.978 39.7167C458.412 40.0809 458.028 40.7086 457.95 41.3944C457.856 42.2344 457.316 42.881 456.572 43.04L456.027 43.1562C455.285 43.3129 454.542 42.9451 454.132 42.2118C453.654 41.3552 452.703 40.9138 451.765 41.1155C450.822 41.3172 450.114 42.1133 449.999 43.0957C449.902 43.9369 449.361 44.5824 448.62 44.7402L448.085 44.8541C447.353 45.0119 446.6 44.6429 446.192 43.9109C445.856 43.3129 445.261 42.8952 444.598 42.792C443.752 42.6615 443.112 41.9022 443.077 40.9862L443.024 39.6372C443.016 39.4189 442.92 39.2231 442.754 39.089C442.588 38.9538 442.389 38.9051 442.173 38.949L433.723 40.7572C433.006 45.7202 429.396 49.6937 424.62 50.7153C423.833 50.8838 423.04 50.9668 422.255 50.9668Z" fill="white"/>
<path d="M403.536 80.5195C396.038 80.5195 389.958 76.5033 389.958 71.5498C389.958 66.5963 396.038 62.5813 403.536 62.5813C411.036 62.5813 417.115 66.5963 417.115 71.5498C417.115 76.5033 411.036 80.5195 403.536 80.5195Z" fill="#51E451"/>
<path d="M381.939 84.2012C381.222 84.2012 380.536 84.1122 379.906 83.9484L382.42 76.851C385.273 77.0123 387.513 78.5927 387.513 80.5195C387.513 82.5532 385.017 84.2012 381.939 84.2012Z" fill="#84DC84"/>
<path d="M379.907 83.9487C377.833 83.4136 376.365 82.08 376.365 80.5198C376.365 78.4862 378.86 76.8382 381.939 76.8382C382.101 76.8382 382.261 76.8429 382.42 76.8512L379.907 83.9487Z" fill="#84DC84"/>
</svg>
