<svg width="3233" height="2497" viewBox="0 0 3233 2497" fill="none" xmlns="http://www.w3.org/2000/svg">
<g clip-path="url(#clip0_0_200)">
<path d="M3084.97 404.928C3015.36 404.928 2958.73 462.295 2958.73 532.824C2958.73 603.339 3015.36 660.707 3084.97 660.707C3154.58 660.707 3211.21 603.339 3211.21 532.824C3211.21 462.295 3154.58 404.928 3084.97 404.928ZM3084.97 682.016C3003.76 682.016 2937.68 615.088 2937.68 532.824C2937.68 450.547 3003.76 383.619 3084.97 383.619C3166.19 383.619 3232.26 450.547 3232.26 532.824C3232.26 615.088 3166.19 682.016 3084.97 682.016Z" fill="#07C907"/>
<path d="M2601.33 357.869L2576.03 315.89C2573.95 312.437 2575.02 307.943 2578.43 305.849C2581.82 303.742 2586.26 304.836 2588.33 308.276L2606.23 337.96L2653.82 309.423C2657.24 307.369 2661.66 308.529 2663.69 311.997C2665.72 315.464 2664.58 319.944 2661.15 321.998L2601.33 357.869Z" fill="white"/>
<path d="M2618.33 251.335C2575.31 251.335 2540.3 286.793 2540.3 330.372C2540.3 373.951 2575.31 409.395 2618.33 409.395C2661.35 409.395 2696.35 373.951 2696.35 330.372C2696.35 286.793 2661.35 251.335 2618.33 251.335ZM2618.33 422.57C2568.15 422.57 2527.31 381.205 2527.31 330.372C2527.31 279.526 2568.15 238.161 2618.33 238.161C2668.52 238.161 2709.35 279.526 2709.35 330.372C2709.35 381.205 2668.52 422.57 2618.33 422.57Z" fill="white"/>
<path d="M1722.62 357.269L1696.98 314.73C1694.87 311.236 1695.95 306.676 1699.4 304.542C1702.85 302.422 1707.34 303.515 1709.45 307.009L1727.59 337.093L1775.82 308.182C1779.29 306.102 1783.77 307.262 1785.82 310.783C1787.89 314.303 1786.73 318.837 1783.26 320.917L1722.62 357.269Z" fill="#07C907"/>
<path d="M1739.86 249.295C1696.24 249.295 1660.77 285.233 1660.77 329.398C1660.77 373.577 1696.24 409.515 1739.86 409.515C1783.45 409.515 1818.93 373.577 1818.93 329.398C1818.93 285.233 1783.45 249.295 1739.86 249.295ZM1739.86 422.864C1688.98 422.864 1647.59 380.938 1647.59 329.398C1647.59 277.872 1688.98 235.947 1739.86 235.947C1790.72 235.947 1832.12 277.872 1832.12 329.398C1832.12 380.938 1790.72 422.864 1739.86 422.864Z" fill="#07C907"/>
<g filter="url(#filter0_dd_0_200)">
<path d="M1362.21 152.883L1330.09 99.6233C1327.46 95.2494 1328.83 89.5553 1333.13 86.8883C1337.45 84.2213 1343.07 85.5948 1345.71 89.9554L1368.43 127.627L1428.8 91.4355C1433.14 88.8219 1438.76 90.2754 1441.33 94.6893C1443.89 99.0899 1442.46 104.77 1438.12 107.384L1362.21 152.883Z" fill="#41D5E7"/>
</g>
<g filter="url(#filter1_dd_0_200)">
<path d="M1383.78 17.7197C1329.19 17.7197 1284.78 62.6987 1284.78 117.999C1284.78 173.299 1329.19 218.278 1383.78 218.278C1438.37 218.278 1482.77 173.299 1482.77 117.999C1482.77 62.6987 1438.37 17.7197 1383.78 17.7197ZM1383.78 235C1320.09 235 1268.28 182.514 1268.28 117.999C1268.28 53.4842 1320.09 0.997559 1383.78 0.997559C1447.46 0.997559 1499.26 53.4842 1499.26 117.999C1499.26 182.514 1447.46 235 1383.78 235Z" fill="#41D5E7"/>
</g>
<path d="M977.016 267.831C916.502 267.831 867.269 317.704 867.269 379.005C867.269 440.306 916.502 490.179 977.016 490.179C1037.53 490.179 1086.78 440.306 1086.78 379.005C1086.78 317.704 1037.53 267.831 977.016 267.831ZM977.016 508.714C906.418 508.714 848.972 450.52 848.972 379.005C848.972 307.489 906.418 249.295 977.016 249.295C1047.63 249.295 1105.06 307.489 1105.06 379.005C1105.06 450.52 1047.63 508.714 977.016 508.714Z" fill="white"/>
<path d="M2159.35 39.5087C2093.36 39.5087 2039.67 93.9024 2039.67 160.751C2039.67 227.599 2093.36 281.979 2159.35 281.979C2225.35 281.979 2279.03 227.599 2279.03 160.751C2279.03 93.9024 2225.35 39.5087 2159.35 39.5087ZM2159.35 302.182C2082.36 302.182 2019.73 238.734 2019.73 160.751C2019.73 82.7543 2082.36 19.3062 2159.35 19.3062C2236.34 19.3062 2298.97 82.7543 2298.97 160.751C2298.97 238.734 2236.34 302.182 2159.35 302.182Z" fill="#41D5E7"/>
<path d="M2181.58 111.533H2215.89L2228.42 92.022H2107.65L2095.13 111.533H2141.52C2151.75 114.309 2160.06 119.884 2164.66 126.961H2107.65L2095.13 146.472H2167.49C2163.19 159.796 2146.6 169.726 2126.77 169.726H2102.03V187.31L2172.22 242.041H2202.78V235.237L2138.64 186.351C2165.56 185.369 2187.55 168.414 2191.57 146.471H2215.89L2228.42 126.961H2190.32C2188.53 121.331 2185.53 116.123 2181.58 111.533Z" fill="#41D5E7"/>
<path d="M2906.51 174.873L2886.26 141.295C2884.6 138.548 2885.46 134.948 2888.18 133.268C2890.9 131.587 2894.45 132.454 2896.11 135.214L2910.43 158.951L2948.49 136.135C2951.22 134.494 2954.77 135.414 2956.38 138.188C2958 140.962 2957.1 144.549 2954.36 146.189L2906.51 174.873Z" fill="#41D5E7"/>
<path d="M2920.11 89.662C2885.7 89.662 2857.7 118.026 2857.7 152.883C2857.7 187.741 2885.7 216.105 2920.11 216.105C2954.52 216.105 2982.51 187.741 2982.51 152.883C2982.51 118.026 2954.52 89.662 2920.11 89.662ZM2920.11 226.639C2879.96 226.639 2847.3 193.555 2847.3 152.883C2847.3 112.212 2879.96 79.1274 2920.11 79.1274C2960.26 79.1274 2992.91 112.212 2992.91 152.883C2992.91 193.555 2960.26 226.639 2920.11 226.639Z" fill="#41D5E7"/>
<path d="M1887.63 2221.34H2088.44V1603.45H1887.63V2221.34Z" fill="#8F8F8F"/>
<path d="M1209.21 1901.1H2766.87C2815.57 1901.1 2855.06 1861.1 2855.06 1811.76V751.251C2855.06 701.912 2815.57 661.907 2766.87 661.907H1209.21C1160.51 661.907 1121.01 701.912 1121.01 751.251V1811.76C1121.01 1861.1 1160.51 1901.1 1209.21 1901.1Z" fill="#F0F0F0"/>
<path d="M1188.93 1706.9H2787.14V530.024H1188.93V1706.9Z" fill="white"/>
<mask id="mask0_0_200" style="mask-type:luminance" maskUnits="userSpaceOnUse" x="1188" y="530" width="1600" height="143">
<path d="M1188.93 672.161H2787.14V530.024H1188.93V672.161Z" fill="white"/>
</mask>
<g mask="url(#mask0_0_200)">
<path d="M1188.93 672.161H2787.14V530.024H1188.93V672.161Z" fill="url(#paint0_linear_0_200)"/>
</g>
<path d="M2592.66 1795.77C2592.66 1827.05 2622.1 1852.43 2658.42 1852.43C2694.74 1852.43 2724.19 1827.05 2724.19 1795.77C2724.19 1764.47 2694.74 1739.11 2658.42 1739.11C2622.1 1739.11 2592.66 1764.47 2592.66 1795.77Z" fill="#CCCCCC"/>
<path d="M2439.76 2244.65H1536.32V2198.02H2439.76V2244.65Z" fill="#CCCCCC"/>
<path d="M1464.58 627.943H1274.74C1264.21 627.943 1255.68 619.301 1255.68 608.633V593.538C1255.68 582.884 1264.21 574.229 1274.74 574.229H1464.58C1475.09 574.229 1483.64 582.884 1483.64 593.538V608.633C1483.64 619.301 1475.09 627.943 1464.58 627.943Z" fill="#F5F7FF"/>
<path d="M2142.79 1196.57H1306.02V1167.44H2142.79V1196.57Z" fill="#E6E6E6"/>
<path d="M1926.64 1249.06H1306.02V1219.92H1926.64V1249.06Z" fill="#E6E6E6"/>
<path d="M1699.55 1363.09H1306.02V1333.95H1699.55V1363.09Z" fill="#E6E6E6"/>
<path d="M2013.02 1415.56H1306.02V1386.42H2013.02V1415.56Z" fill="#E6E6E6"/>
<path d="M1968.33 1540.95H1306.02V1511.81H1968.33V1540.95Z" fill="#E6E6E6"/>
<path d="M2114.76 1593.42H1306.02V1564.29H2114.76V1593.42Z" fill="#E6E6E6"/>
<path d="M1265.18 1249.06H1286.22V1167.44H1265.18V1249.06Z" fill="#78C2FF"/>
<path d="M1265.18 1415.56H1286.22V1333.95H1265.18V1415.56Z" fill="#07C907"/>
<path d="M1265.18 1593.42H1286.22V1511.81H1265.18V1593.42Z" fill="#78C2FF"/>
<path d="M2420.69 1630.17H2353.67C2340.35 1630.17 2329.55 1619.24 2329.55 1605.74V1537.86C2329.55 1524.36 2340.35 1513.43 2353.67 1513.43H2420.69C2434.01 1513.43 2444.8 1524.36 2444.8 1537.86V1605.74C2444.8 1619.24 2434.01 1630.17 2420.69 1630.17Z" fill="#78C2FF"/>
<path d="M2383.52 1597.52L2354.39 1571.78C2352 1569.67 2351.76 1566.01 2353.84 1563.58C2355.92 1561.17 2359.54 1560.91 2361.94 1563.02L2382.54 1581.22L2411.92 1548.02C2414.04 1545.63 2417.66 1545.43 2420.03 1547.56C2422.38 1549.71 2422.58 1553.39 2420.46 1555.78L2383.52 1597.52Z" fill="#F3F3F3"/>
<path d="M2355.76 1342.91C2345.31 1342.91 2336.81 1351.53 2336.81 1362.11V1425.76C2336.81 1436.35 2345.31 1444.96 2355.76 1444.96H2418.59C2429.04 1444.96 2437.55 1436.35 2437.55 1425.76V1362.11C2437.55 1351.53 2429.04 1342.91 2418.59 1342.91H2355.76ZM2418.59 1452.37H2355.76C2341.28 1452.37 2329.5 1440.43 2329.5 1425.76V1362.11C2329.5 1347.45 2341.28 1335.5 2355.76 1335.5H2418.59C2433.07 1335.5 2444.85 1347.45 2444.85 1362.11V1425.76C2444.85 1440.43 2433.07 1452.37 2418.59 1452.37Z" fill="#78C2FF"/>
<path d="M2529.29 1165.05C2518.85 1165.05 2510.33 1173.66 2510.33 1184.25V1247.9C2510.33 1258.47 2518.85 1267.09 2529.29 1267.09H2592.12C2602.57 1267.09 2611.07 1258.47 2611.07 1247.9V1184.25C2611.07 1173.66 2602.57 1165.05 2592.12 1165.05H2529.29ZM2592.12 1274.5H2529.29C2514.81 1274.5 2503.02 1262.57 2503.02 1247.9V1184.25C2503.02 1169.57 2514.81 1157.64 2529.29 1157.64H2592.12C2606.6 1157.64 2618.39 1169.57 2618.39 1184.25V1247.9C2618.39 1262.57 2606.6 1274.5 2592.12 1274.5Z" fill="#78C2FF"/>
<path d="M2529.29 1520.77C2518.85 1520.77 2510.33 1529.39 2510.33 1539.98V1603.62C2510.33 1614.21 2518.85 1622.83 2529.29 1622.83H2592.12C2602.57 1622.83 2611.07 1614.21 2611.07 1603.62V1539.98C2611.07 1529.39 2602.57 1520.77 2592.12 1520.77H2529.29ZM2592.12 1630.23H2529.29C2514.81 1630.23 2503.02 1618.29 2503.02 1603.62V1539.98C2503.02 1525.31 2514.81 1513.37 2529.29 1513.37H2592.12C2606.6 1513.37 2618.39 1525.31 2618.39 1539.98V1603.62C2618.39 1618.29 2606.6 1630.23 2592.12 1630.23Z" fill="#78C2FF"/>
<path d="M2594.21 1452.31H2527.19C2513.87 1452.31 2503.08 1441.38 2503.08 1427.88V1359.99C2503.08 1346.5 2513.87 1335.56 2527.19 1335.56H2594.21C2607.53 1335.56 2618.33 1346.5 2618.33 1359.99V1427.88C2618.33 1441.38 2607.53 1452.31 2594.21 1452.31Z" fill="#07C907"/>
<path d="M2557.05 1419.65L2527.92 1393.92C2525.53 1391.81 2525.28 1388.13 2527.36 1385.72C2529.44 1383.29 2533.06 1383.05 2535.46 1385.16L2556.06 1403.35L2585.44 1370.16C2587.56 1367.77 2591.18 1367.57 2593.55 1369.7C2595.91 1371.85 2596.11 1375.53 2593.99 1377.92L2557.05 1419.65Z" fill="#F3F3F3"/>
<path d="M2420.69 1274.45H2353.67C2340.35 1274.45 2329.55 1263.5 2329.55 1250.02V1182.13C2329.55 1168.64 2340.35 1157.7 2353.67 1157.7H2420.69C2434.01 1157.7 2444.8 1168.64 2444.8 1182.13V1250.02C2444.8 1263.5 2434.01 1274.45 2420.69 1274.45Z" fill="#78C2FF"/>
<path d="M2383.52 1241.78L2354.39 1216.06C2352 1213.95 2351.76 1210.27 2353.84 1207.86C2355.92 1205.43 2359.54 1205.19 2361.94 1207.29L2382.54 1225.48L2411.92 1192.29C2414.04 1189.89 2417.66 1189.69 2420.03 1191.84C2422.38 1193.99 2422.58 1197.65 2420.46 1200.05L2383.52 1241.78Z" fill="#F3F3F3"/>
<mask id="mask1_0_200" style="mask-type:luminance" maskUnits="userSpaceOnUse" x="715" y="1316" width="317" height="848">
<path d="M1003.58 1317.87C976.371 1304.68 949.293 1392.42 949.293 1392.42C903.048 1454.33 838.427 1371.98 844.746 1464.51C855.804 1626.44 660.755 1515.43 750.738 1684.49C840.718 1853.54 671.285 1780.07 727.204 1916.38C783.126 2052.69 710.645 2215.27 794.79 2148.45C794.79 2148.45 868.875 1983.89 945.278 1932.97C1021.68 1882.05 899.494 1821.62 923.4 1752.47C958.126 1652.02 1041.78 1655.96 981.465 1548.02C921.149 1440.07 1096.07 1362.67 1003.58 1317.87Z" fill="white"/>
</mask>
<g mask="url(#mask1_0_200)">
<path d="M1003.58 1317.87C976.371 1304.68 949.293 1392.42 949.293 1392.42C903.048 1454.33 838.427 1371.98 844.746 1464.51C855.804 1626.44 660.755 1515.43 750.738 1684.49C840.718 1853.54 671.285 1780.07 727.204 1916.38C783.126 2052.69 710.645 2215.27 794.79 2148.45C794.79 2148.45 868.875 1983.89 945.278 1932.97C1021.68 1882.05 899.494 1821.62 923.4 1752.47C958.126 1652.02 1041.78 1655.96 981.465 1548.02C921.149 1440.07 1096.07 1362.67 1003.58 1317.87Z" fill="#07C907"/>
</g>
<path d="M768.141 2086.52C804.61 2060.55 847.3 1879.47 849.84 1771.62C851.144 1716.39 867.269 1693.37 881.486 1673.06C895.084 1653.66 906.826 1636.88 899.981 1598.4C886.91 1524.84 921.28 1493.09 921.622 1492.77L917.647 1488.18C916.12 1489.54 880.328 1522.28 894.044 1599.48C900.442 1635.44 889.911 1650.48 876.563 1669.53C862.57 1689.5 845.154 1714.37 843.811 1771.49C841.073 1887.22 797.435 2058.17 764.671 2081.52L768.141 2086.52Z" fill="white"/>
<mask id="mask2_0_200" style="mask-type:luminance" maskUnits="userSpaceOnUse" x="514" y="1737" width="286" height="363">
<path d="M578.308 1754.14C556.704 1742.19 533.539 1739.79 524.426 1748.54C517.498 1755.19 520.766 1766.58 524.726 1774.97C532.283 1790.97 541.837 1800.85 550.271 1809.57C561.992 1821.68 571.252 1831.25 566.558 1849.84C565.636 1853.48 564.574 1857.16 563.508 1860.86C556.057 1886.67 549.02 1911.06 588.028 1928.82C597.19 1932.99 605.587 1936.33 612.995 1939.28C643.86 1951.55 664.252 1959.66 686.11 2006.39C690.177 2015.09 693.754 2023.3 697.213 2031.24C716.081 2074.56 727.47 2100.7 768.719 2092.26C780.542 2089.85 788.247 2083.66 791.617 2073.91C800.279 2048.8 779.55 2004.86 761.248 1982.79C759.908 1981.16 728.444 1942.31 731.901 1886.69C732.464 1877.65 733.385 1869.32 734.195 1861.99C736.346 1842.55 737.901 1828.49 730.779 1820.38C724.267 1812.98 710.016 1809.62 684.569 1809.5C633.468 1809.25 613.296 1787.86 597.086 1770.66C590.6 1763.78 585 1757.84 578.308 1754.14ZM691.694 2033.7C688.251 2025.81 684.691 2017.64 680.658 2009.01C659.823 1964.46 641.367 1957.12 610.792 1944.96C603.32 1941.99 594.852 1938.63 585.556 1934.4C541.756 1914.45 550.236 1885.07 557.719 1859.14C558.766 1855.51 559.81 1851.9 560.713 1848.32C564.566 1833.08 557.165 1825.43 545.962 1813.85C537.635 1805.24 527.273 1794.53 519.285 1777.61C510.542 1759.1 514.999 1749.18 520.276 1744.11C531.388 1733.43 557.009 1735.4 581.198 1748.78C588.714 1752.94 594.899 1759.5 601.448 1766.44C616.868 1782.81 636.061 1803.16 684.598 1803.38C712.274 1803.52 727.433 1807.4 735.285 1816.33C744.195 1826.47 742.516 1841.65 740.19 1862.67C739.387 1869.94 738.474 1878.18 737.921 1887.07C734.621 1940.19 765.566 1978.5 765.873 1978.87C784.364 2001.17 807.137 2047.44 797.304 2075.92C793.184 2087.86 783.969 2095.38 769.915 2098.25C764.313 2099.39 759.2 2099.94 754.493 2099.94C720.549 2099.94 708.119 2071.42 691.694 2033.7Z" fill="white"/>
</mask>
<g mask="url(#mask2_0_200)">
<path d="M578.308 1754.14C556.704 1742.19 533.539 1739.79 524.426 1748.54C517.498 1755.19 520.766 1766.58 524.726 1774.97C532.283 1790.97 541.837 1800.85 550.271 1809.57C561.992 1821.68 571.252 1831.25 566.558 1849.84C565.636 1853.48 564.574 1857.16 563.508 1860.86C556.057 1886.67 549.02 1911.06 588.028 1928.82C597.19 1932.99 605.587 1936.33 612.995 1939.28C643.86 1951.55 664.252 1959.66 686.11 2006.39C690.177 2015.09 693.754 2023.3 697.213 2031.24C716.081 2074.56 727.47 2100.7 768.719 2092.26C780.542 2089.85 788.247 2083.66 791.617 2073.91C800.279 2048.8 779.55 2004.86 761.248 1982.79C759.908 1981.16 728.444 1942.31 731.901 1886.69C732.464 1877.65 733.385 1869.32 734.195 1861.99C736.346 1842.55 737.901 1828.49 730.779 1820.38C724.267 1812.98 710.016 1809.62 684.569 1809.5C633.468 1809.25 613.296 1787.86 597.086 1770.66C590.6 1763.78 585 1757.84 578.308 1754.14ZM691.694 2033.7C688.251 2025.81 684.691 2017.64 680.658 2009.01C659.823 1964.46 641.367 1957.12 610.792 1944.96C603.32 1941.99 594.852 1938.63 585.556 1934.4C541.756 1914.45 550.236 1885.07 557.719 1859.14C558.766 1855.51 559.81 1851.9 560.713 1848.32C564.566 1833.08 557.165 1825.43 545.962 1813.85C537.635 1805.24 527.273 1794.53 519.285 1777.61C510.542 1759.1 514.999 1749.18 520.276 1744.11C531.388 1733.43 557.009 1735.4 581.198 1748.78C588.714 1752.94 594.899 1759.5 601.448 1766.44C616.868 1782.81 636.061 1803.16 684.598 1803.38C712.274 1803.52 727.433 1807.4 735.285 1816.33C744.195 1826.47 742.516 1841.65 740.19 1862.67C739.387 1869.94 738.474 1878.18 737.921 1887.07C734.621 1940.19 765.566 1978.5 765.873 1978.87C784.364 2001.17 807.137 2047.44 797.304 2075.92C793.184 2087.86 783.969 2095.38 769.915 2098.25C764.313 2099.39 759.2 2099.94 754.493 2099.94C720.549 2099.94 708.119 2071.42 691.694 2033.7Z" fill="#07C907"/>
</g>
<mask id="mask3_0_200" style="mask-type:luminance" maskUnits="userSpaceOnUse" x="561" y="1786" width="215" height="350">
<path d="M769.264 2135.22L775.287 2134.9C774.991 2129.17 767.392 1994.03 713.834 1954.49C655.075 1911.1 636.549 1864.48 627.727 1833.19C617.329 1796.3 564.413 1786.45 562.166 1786.05L561.117 1792.06C561.63 1792.15 612.569 1801.66 621.926 1834.85C630.994 1867.03 650.018 1914.93 710.279 1959.43C761.542 1997.27 769.193 2133.84 769.264 2135.22Z" fill="white"/>
</mask>
<g mask="url(#mask3_0_200)">
<path d="M769.264 2135.22L775.287 2134.9C774.991 2129.17 767.392 1994.03 713.834 1954.49C655.075 1911.1 636.549 1864.48 627.727 1833.19C617.329 1796.3 564.413 1786.45 562.166 1786.05L561.117 1792.06C561.63 1792.15 612.569 1801.66 621.926 1834.85C630.994 1867.03 650.018 1914.93 710.279 1959.43C761.542 1997.27 769.193 2133.84 769.264 2135.22Z" fill="#07C907"/>
</g>
<mask id="mask4_0_200" style="mask-type:luminance" maskUnits="userSpaceOnUse" x="603" y="1452" width="250" height="668">
<path d="M646.808 1454.23C684.876 1441 676.967 1515.33 693.052 1570.33C709.137 1625.32 871.995 1594.32 803.636 1732.03C735.275 1869.72 890.095 1778.07 843.851 1898.25C797.607 2018.41 839.823 2146.93 789.563 2114.25C739.295 2081.55 761.322 1930.23 709.046 1912.25C656.77 1894.26 648.24 1873.3 699.999 1824.41C751.756 1775.53 564.374 1727 610.617 1628.29C656.86 1529.59 602.828 1469.5 646.808 1454.23Z" fill="white"/>
</mask>
<g mask="url(#mask4_0_200)">
<path d="M646.808 1454.23C684.876 1441 676.967 1515.33 693.052 1570.33C709.137 1625.32 871.995 1594.32 803.636 1732.03C735.275 1869.72 890.095 1778.07 843.851 1898.25C797.607 2018.41 839.823 2146.93 789.563 2114.25C739.295 2081.55 761.322 1930.23 709.046 1912.25C656.77 1894.26 648.24 1873.3 699.999 1824.41C751.756 1775.53 564.374 1727 610.617 1628.29C656.86 1529.59 602.828 1469.5 646.808 1454.23Z" fill="#33F033"/>
</g>
<path d="M766.237 2108.49C771.025 2087.91 811.902 1906.88 773.762 1884.99C740.139 1865.7 740.968 1790.69 746.213 1719.84C750.856 1657.14 671.353 1627.83 667.967 1626.61L665.949 1632.37C666.735 1632.65 744.496 1661.34 740.198 1719.39C734.811 1792.14 734.235 1869.34 770.789 1890.3C799.752 1906.93 773.088 2052.43 760.366 2107.09L766.237 2108.49Z" fill="white"/>
<mask id="mask5_0_200" style="mask-type:luminance" maskUnits="userSpaceOnUse" x="679" y="2044" width="231" height="209">
<path d="M909.867 2044.01L855.514 2252.91H734.053L679.704 2044.01H909.867Z" fill="white"/>
</mask>
<g mask="url(#mask5_0_200)">
<path d="M909.867 2044.01L855.514 2252.91H734.053L679.704 2044.01H909.867Z" fill="#2B76E8"/>
</g>
<mask id="mask6_0_200" style="mask-type:luminance" maskUnits="userSpaceOnUse" x="679" y="2044" width="231" height="209">
<path d="M909.867 2044.01C909.867 2044.01 790.209 2066.78 790.209 2252.91H734.053L679.704 2044.01H909.867Z" fill="white"/>
</mask>
<g mask="url(#mask6_0_200)">
<path d="M909.867 2044.01C909.867 2044.01 790.209 2066.78 790.209 2252.91H734.053L679.704 2044.01H909.867Z" fill="#0253CC"/>
</g>
<path d="M1469.97 1080.47H1346.84V1065.09H1469.97V1080.47Z" fill="#D6D6D6"/>
<path d="M1499.85 1053.09H1316.97V1037.73H1499.85V1053.09Z" fill="#D6D6D6"/>
<mask id="mask7_0_200" style="mask-type:luminance" maskUnits="userSpaceOnUse" x="1376" y="794" width="65" height="65">
<path d="M1440.49 826.794C1440.49 844.569 1426.26 858.998 1408.69 858.998C1391.13 858.998 1376.89 844.569 1376.89 826.794C1376.89 809.005 1391.13 794.577 1408.69 794.577C1426.26 794.577 1440.49 809.005 1440.49 826.794Z" fill="white"/>
</mask>
<g mask="url(#mask7_0_200)">
<path d="M1440.49 826.794C1440.49 844.569 1426.26 858.998 1408.69 858.998C1391.13 858.998 1376.89 844.569 1376.89 826.794C1376.89 809.005 1391.13 794.577 1408.69 794.577C1426.26 794.577 1440.49 809.005 1440.49 826.794Z" fill="#07C907"/>
</g>
<mask id="mask8_0_200" style="mask-type:luminance" maskUnits="userSpaceOnUse" x="1350" y="873" width="117" height="133">
<path d="M1466.04 931.781V993.028C1448.48 1001.12 1428.95 1005.62 1408.41 1005.62C1387.86 1005.62 1368.33 1001.12 1350.79 993.028V931.781C1350.79 899.55 1376.58 873.4 1408.41 873.4C1440.25 873.4 1466.04 899.55 1466.04 931.781Z" fill="white"/>
</mask>
<g mask="url(#mask8_0_200)">
<path d="M1466.04 931.781V993.028C1448.48 1001.12 1428.95 1005.62 1408.41 1005.62C1387.86 1005.62 1368.33 1001.12 1350.79 993.028V931.781C1350.79 899.55 1376.58 873.4 1408.41 873.4C1440.25 873.4 1466.04 899.55 1466.04 931.781Z" fill="#07C907"/>
</g>
<mask id="mask9_0_200" style="mask-type:luminance" maskUnits="userSpaceOnUse" x="1265" y="719" width="287" height="291">
<path d="M1408.41 726.942C1333.61 726.942 1272.75 788.589 1272.75 864.359C1272.75 918.152 1303.99 967.278 1352.34 989.548C1369.98 997.669 1388.84 1001.79 1408.41 1001.79C1427.98 1001.79 1446.84 997.669 1464.47 989.548C1512.83 967.278 1544.07 918.152 1544.07 864.359C1544.07 788.589 1483.21 726.942 1408.41 726.942ZM1408.41 1009.44C1387.75 1009.44 1367.83 1005.1 1349.22 996.522C1298.17 973.012 1265.18 921.139 1265.18 864.359C1265.18 784.362 1329.44 719.274 1408.41 719.274C1487.39 719.274 1551.64 784.362 1551.64 864.359C1551.64 921.139 1518.65 973.012 1467.6 996.522C1448.98 1005.1 1429.06 1009.44 1408.41 1009.44Z" fill="white"/>
</mask>
<g mask="url(#mask9_0_200)">
<path d="M1408.41 726.942C1333.61 726.942 1272.75 788.589 1272.75 864.359C1272.75 918.152 1303.99 967.278 1352.34 989.548C1369.98 997.669 1388.84 1001.79 1408.41 1001.79C1427.98 1001.79 1446.84 997.669 1464.47 989.548C1512.83 967.278 1544.07 918.152 1544.07 864.359C1544.07 788.589 1483.21 726.942 1408.41 726.942ZM1408.41 1009.44C1387.75 1009.44 1367.83 1005.1 1349.22 996.522C1298.17 973.012 1265.18 921.139 1265.18 864.359C1265.18 784.362 1329.44 719.274 1408.41 719.274C1487.39 719.274 1551.64 784.362 1551.64 864.359C1551.64 921.139 1518.65 973.012 1467.6 996.522C1448.98 1005.1 1429.06 1009.44 1408.41 1009.44Z" fill="url(#paint1_linear_0_200)"/>
</g>
<path d="M1697.9 739.316H1631.48V724.408H1697.9V739.316Z" fill="#E6E6E6"/>
<path d="M1903.14 739.316H1825.28V724.408H1903.14V739.316Z" fill="#E6E6E6"/>
<path d="M2068.45 739.316H2019.73V724.408H2068.45V739.316Z" fill="#E6E6E6"/>
<path d="M2298.97 739.316H2209.99V724.408H2298.97V739.316Z" fill="#E6E6E6"/>
<path d="M2460.77 739.316H2387.18V724.408H2460.77V739.316Z" fill="#E6E6E6"/>
<path d="M2653.6 739.316H2560.71V724.408H2653.6V739.316Z" fill="#E6E6E6"/>
<path d="M1633.69 767.107H1631.48V997.442H1633.69V767.107Z" fill="#E6E6E6"/>
<path d="M1826.38 767.107H1824.17V997.442H1826.38V767.107Z" fill="#E6E6E6"/>
<path d="M2021.94 767.107H2019.73V997.442H2021.94V767.107Z" fill="#E6E6E6"/>
<path d="M2211.09 767.107H2208.88V997.442H2211.09V767.107Z" fill="#E6E6E6"/>
<path d="M2388.29 767.107H2386.06V997.442H2388.29V767.107Z" fill="#E6E6E6"/>
<path d="M2561.81 767.107H2559.6V997.442H2561.81V767.107Z" fill="#E6E6E6"/>
<path d="M1631.48 997.442L1691.83 911.325L1737.39 976.333L1808.07 875.48H1840.62L1888.91 905.284L1946.99 822.42L2026.76 936.261L2076.47 865.346H2089.77L2116.13 827.727L2187.11 929.007L2220.44 881.441L2254.37 929.86L2312.86 846.41L2357.41 909.978H2390L2458.95 811.592L2531.04 914.458L2653.6 811.592V997.442H1631.48Z" fill="#46BBED"/>
<path d="M1800.42 997.442L1849.83 926.967L1878.72 968.212L1937.58 884.241L1993.4 963.904H2037.4L2076.99 907.404H2128.83L2185.08 987.667L2221.73 935.381L2242.2 964.598L2309.35 868.786L2359.21 939.928H2402.64L2451.92 869.626L2473.59 900.55L2491.31 875.253L2537.12 940.608H2584.55L2653.6 842.063V997.442H1800.42Z" fill="#5286FB"/>
<path d="M2968.8 1447.22C2968.8 1447.22 2975.54 1514.65 2963.24 1531.58C2963.24 1531.58 2995.81 1524.39 3003.35 1513.03C3010.88 1501.68 2968.8 1447.22 2968.8 1447.22Z" fill="#784738"/>
<path d="M2765.46 1662.58C2765.46 1662.58 2753.65 1654.54 2751.81 1653.36C2749.96 1652.19 2743.89 1652.39 2736.94 1653.22C2729.99 1654.06 2720.98 1658.34 2720.44 1659.43C2719.9 1660.52 2718.84 1661.36 2719.28 1664.47C2719.71 1667.58 2721.77 1669.97 2721.77 1669.97C2721.77 1669.97 2720.53 1674.05 2723.28 1676.79C2723.28 1676.79 2722.29 1680.69 2725.91 1683.29C2725.91 1683.29 2725.04 1687.11 2727.85 1688.77C2727.85 1688.77 2733.93 1688.6 2736.19 1689.18C2738.46 1689.77 2751.08 1688.51 2763.01 1685.41C2763.01 1685.41 2776.3 1682.53 2765.46 1662.58Z" fill="#EEA886"/>
<path d="M2745.34 1668.15C2745.34 1668.15 2748.91 1674.45 2750.79 1675.69C2752.66 1676.94 2741.7 1688.9 2741.7 1688.9C2741.7 1688.9 2737.93 1672.74 2745.34 1668.15Z" fill="#CF8C6C"/>
<path d="M2772.46 1663.73C2772.46 1663.73 2765.02 1662.9 2760.43 1660.75C2755.83 1658.6 2761.3 1684.19 2761.3 1684.19C2761.3 1684.19 2772.42 1676.42 2779.69 1676.18C2786.94 1675.95 2772.46 1663.73 2772.46 1663.73Z" fill="#EEA886"/>
<path d="M3080.41 2345.29C3080.41 2345.29 3057.18 2379.69 3049.07 2387C3049.07 2387 3032.87 2395.52 3032.37 2402.34C3031.41 2415.21 3030.27 2427.21 3051.6 2427.81C3072.92 2428.42 3086.72 2423.33 3090.63 2410.25C3094.53 2397.16 3103.83 2385.91 3103.83 2385.91V2413.29H3108.64C3108.64 2413.29 3109.85 2386.82 3110.15 2381.95C3110.44 2377.08 3113.6 2358.36 3103.46 2350.08C3093.33 2341.78 3080.41 2345.29 3080.41 2345.29Z" fill="#162D40"/>
<path d="M3045.98 2388.76C3045.98 2388.76 3057.51 2392.06 3071.23 2388.56C3084.93 2385.07 3098.09 2351.81 3102.11 2349.05L3105.65 2335.62H3078.93C3078.93 2335.62 3078.7 2345.56 3074.38 2354.05C3070.07 2362.55 3045.98 2388.76 3045.98 2388.76Z" fill="#162D40"/>
<path d="M2929.58 2332.44C2929.58 2332.44 2926.11 2340.77 2919.53 2349.48C2914.71 2355.85 2899.7 2382.03 2893.09 2383.86C2886.48 2385.67 2866.07 2389.32 2864.26 2400.88C2862.46 2412.45 2861.57 2420.66 2881.68 2421.58C2901.81 2422.49 2915.02 2423.7 2924.63 2409.4C2934.24 2395.11 2949.55 2384.76 2949.55 2384.76V2422.07H2957.37C2957.37 2422.07 2960.97 2383.24 2963.07 2380.51C2965.18 2377.76 2970.57 2347.94 2951.96 2332.44C2933.33 2316.91 2929.58 2332.44 2929.58 2332.44Z" fill="#162D40"/>
<path d="M2893.09 2383.86C2893.09 2383.86 2911.11 2388.42 2918.03 2383.86C2924.94 2379.28 2948.42 2339.08 2956.2 2336.66C2956.2 2336.66 2948.66 2321.18 2929.58 2332.44C2929.58 2332.44 2898.2 2377.16 2893.09 2383.86Z" fill="#162D40"/>
<path d="M3090.64 1773.71C3090.64 1773.71 3116.05 1807.17 3122.93 1846.87C3129.83 1886.58 3118.86 2019.84 3119.17 2039.45C3119.47 2059.08 3136.27 2120.14 3132.66 2157.11C3129.05 2194.06 3110.18 2348.36 3110.18 2348.36L3066.16 2347.56C3066.16 2347.56 3074.98 2181.07 3072.73 2165.56C3070.47 2150.04 3063.31 2084.03 3062.41 2077.63C3061.51 2071.24 3012.25 1902.3 3012.25 1873.67C3012.25 1845.05 3029.38 1727 3090.64 1773.71Z" fill="#1D3B54"/>
<path d="M2962.99 1786.79C2962.99 1786.79 2921.25 1948.19 2916.3 1970.55C2911.34 1992.91 2901.43 2022.12 2901.89 2026.22C2902.33 2030.33 2907.14 2099.23 2907.14 2099.23L2919 2333.81H2962.99C2962.99 2333.81 2977.12 2184.58 2979.37 2154.45C2981.62 2124.33 2963.15 2077.79 2967.65 2065.02C2972.15 2052.23 3040.19 1904.84 3040.19 1904.84C3040.19 1904.84 3091.68 1739.93 2962.99 1786.79Z" fill="#1D3B54"/>
<path d="M2975.91 1545.23C2975.91 1545.23 2959.21 1546.82 2946.6 1560.51C2933.99 1574.21 2922.16 1596.04 2918.85 1603.33C2915.55 1610.64 2869.24 1678.3 2866.83 1679.82C2864.44 1681.34 2844.19 1675.95 2827.97 1674.59C2801.51 1672.35 2761.93 1658.7 2761.93 1658.7L2756.05 1688.98C2756.05 1688.98 2853.4 1720.81 2875.87 1715.21C2903.35 1708.36 2966.6 1626.15 2966.6 1626.15C2966.6 1626.15 3013.75 1570.17 2975.91 1545.23Z" fill="#0253CC"/>
<path d="M3005.04 1533.36C3005.04 1533.36 2983.42 1543.71 2975.91 1545.23C2968.4 1546.75 2939.27 1585.08 2934.16 1599.08C2929.06 1613.07 2934.16 1634.07 2944.68 1658.71C2955.19 1683.35 2945.27 1691.57 2950.08 1716.21C2954.88 1740.85 2954.88 1808.02 2953.99 1821.72C2953.08 1835.41 3093.01 1861.23 3120.94 1836.28C3120.94 1836.28 3102.04 1773.14 3079.65 1749.43C3074.81 1744.3 3075.32 1710.12 3078.62 1701.61C3081.93 1693.09 3119.17 1629.49 3119.17 1629.49C3119.17 1629.49 3121.91 1565.01 3105.65 1552.22C3091.54 1541.12 3053.07 1537.16 3046.16 1534.72C3039.25 1532.3 3019.16 1531.23 3005.04 1533.36Z" fill="#0253CC"/>
<path d="M2998.14 1582.2L2985 1566.61L2996.4 1525.57C2996.4 1525.57 3000.23 1548.42 2998.14 1582.2Z" fill="#D1C0BA"/>
<path d="M3080.51 1562.23C3080.51 1562.23 3107.75 1554.31 3123.38 1584.74C3138.99 1615.16 3135.08 1631.59 3138.69 1645.28C3142.3 1658.98 3156.71 1750.55 3157.61 1754.51C3158.51 1758.45 3172.32 1805.01 3170.52 1819.3C3168.72 1833.6 3155.8 1941.92 3156.41 1945.56C3157.01 1949.21 3131.48 1942.06 3131.48 1942.06C3131.48 1942.06 3132.53 1831.48 3131.63 1822.34C3130.74 1813.22 3129.83 1765.3 3123.08 1752.99C3116.31 1740.67 3099.65 1665.36 3096.04 1657.6C3092.45 1649.84 3057.52 1572.11 3080.51 1562.23Z" fill="#2A76E8"/>
<path d="M2994.72 1508.08C2994.72 1508.08 2999.04 1548.27 2998.14 1561.35C2998.14 1561.35 3020.6 1584.16 3046.16 1534.72C3046.16 1534.72 3035.41 1514.35 3043.5 1486.58C3051.6 1458.82 2994.72 1508.08 2994.72 1508.08Z" fill="#EEA886"/>
<path d="M2998.14 1559.35V1580.2L3022.28 1558.51L2998.14 1559.35Z" fill="#EEA886"/>
<path d="M2998.14 1582.2L3008.87 1568.73L3045.04 1532.22L3058.59 1538.31L2998.14 1582.2Z" fill="#D1C0BA"/>
<path d="M2985 1566.61L2968.44 1571.23L2996.4 1525.57L2985 1566.61Z" fill="#FAE6DE"/>
<path d="M3008.87 1568.73L3023.99 1593.28L3059.14 1537.43L3044.1 1529.67L3008.87 1568.73Z" fill="#FAE6DE"/>
<path d="M2931.82 1667.79C2931.82 1667.79 2926.42 1631.35 2932.18 1609.19C2932.18 1609.19 2935.35 1627.07 2943.1 1654.92L2931.82 1667.79Z" fill="#2A76E8"/>
<path d="M3099.8 1662.95C3099.8 1662.95 3084.84 1612.84 3083.95 1610.11C3083.95 1610.11 3084.98 1656.15 3090.71 1678.94C3090.71 1678.94 3096.22 1669.22 3099.8 1662.95Z" fill="#2A76E8"/>
<path d="M2542.88 1411.83L2778.17 1712.14L2769.96 1718.56L2542.88 1411.83Z" fill="#54281A"/>
<path d="M2722.25 1659.14C2722.25 1659.14 2739.91 1657.46 2740.53 1660.3C2741.14 1663.15 2739.67 1664.58 2739.67 1664.58L2747.25 1667.22C2747.25 1667.22 2751.29 1671.85 2745.15 1674.95C2745.15 1674.95 2749.36 1678.87 2743.07 1681.17C2743.07 1681.17 2744.71 1685.01 2741.97 1686.58C2739.25 1688.17 2727.85 1688.77 2727.85 1688.77C2727.85 1688.77 2725.37 1687.81 2725.91 1683.29C2725.91 1683.29 2722.29 1681.01 2723.28 1676.79C2723.28 1676.79 2720.66 1674.5 2721.77 1669.97C2721.77 1669.97 2716.33 1664.41 2720.44 1659.43C2720.44 1659.43 2721.5 1659.2 2722.25 1659.14Z" fill="#DB9C7C"/>
<path d="M2751.24 1653.35C2751.24 1653.35 2740.97 1659.98 2736.94 1666.1C2736.02 1667.47 2735.39 1668.98 2736.31 1670.37C2737.23 1671.74 2740.38 1672.14 2744.97 1669.5C2749.57 1666.86 2756.69 1665.58 2756.69 1665.58C2756.69 1665.58 2760.63 1661.46 2751.24 1653.35Z" fill="#EEA886"/>
<path d="M3012.95 1371.32C3012.95 1371.32 2973.14 1370.26 2965.82 1418.01C2958.5 1465.75 2975.43 1507.71 2982.07 1514.43C2988.7 1521.15 3028.51 1516.04 3037.88 1491.25C3047.27 1466.45 3061 1448.36 3058.93 1427.04C3056.88 1405.73 3061.91 1370.5 3012.95 1371.32Z" fill="#EEA886"/>
<path d="M2964.12 1436.07C2964.12 1436.07 2953.46 1376.53 3006.31 1365.86C3059.17 1355.21 3077.69 1391.82 3082.73 1413.6C3087.76 1435.39 3081.81 1496.81 3081.81 1496.81C3081.81 1496.81 3046.58 1528.09 3025.53 1536.2C3025.53 1536.2 3043.15 1470.85 3036.51 1424.04C3036.51 1424.04 2993.57 1430.86 2965.05 1423.74C2965.05 1423.74 2964.2 1433.52 2964.12 1436.07Z" fill="#784738"/>
<path d="M2995.63 1517.04C2995.63 1517.04 3009.45 1516.95 3028.26 1504.57C3028.26 1504.57 3015.02 1521.41 2996.57 1527.56C2996.57 1527.56 2995.48 1519.19 2995.63 1517.04Z" fill="#A77860"/>
<path d="M3055.65 1939.72L3209.39 1965.15L3227.95 1849.98L3074.21 1824.55L3055.65 1939.72Z" fill="#07C907"/>
<path d="M3161.71 1963.15C3161.71 1963.15 3164.14 1959.18 3164.35 1956.92C3164.35 1956.92 3164.44 1952.77 3164.68 1949.84C3164.75 1948.91 3164.85 1948.09 3164.95 1947.59C3165.41 1945.43 3167.07 1940.83 3166.74 1935.32C3166.43 1929.81 3159 1906.45 3159 1906.45L3145.39 1906.92L3132.59 1905.53C3132.59 1905.53 3117.13 1935.44 3116.84 1940.6C3116.81 1941.11 3116.81 1941.6 3116.84 1942.07C3117.02 1946.47 3118.97 1949.65 3119.33 1951.95C3119.46 1952.8 3121.35 1961.08 3123.59 1962.22C3126.7 1963.79 3129.49 1963.62 3131.56 1962.4C3131.56 1962.4 3137.78 1965.23 3142.22 1964C3142.22 1964 3147.88 1966.79 3152.96 1963.68C3152.96 1963.68 3159.01 1965.86 3161.71 1963.15Z" fill="#EEA886"/>
<path d="M3080.51 1545.23C3080.51 1545.23 3107.75 1537.31 3123.38 1567.74C3138.99 1598.16 3138.91 1611.15 3141.01 1626C3142.97 1640.03 3162.02 1723.36 3162.91 1727.31C3163.82 1731.27 3171.49 1782.02 3171.94 1800.97C3172.27 1815.38 3167.52 1911.22 3168.12 1914.88C3168.72 1918.52 3124.99 1908.48 3124.99 1908.48C3124.99 1908.48 3129.83 1821.32 3128.94 1812.2C3128.03 1803.06 3126.1 1757.56 3121.71 1744.2C3116.53 1728.49 3096.12 1649.35 3092.51 1641.59C3088.92 1633.83 3057.52 1555.11 3080.51 1545.23Z" fill="#0253CC"/>
<path d="M1332.06 1620.29C1332.06 1620.29 1335.53 1602.05 1336.15 1599.28C1336.77 1596.5 1342.96 1590.8 1350.91 1586.5C1358.65 1582.33 1368.83 1575.3 1370.31 1575.79C1371.78 1576.27 1373.32 1576.02 1375.72 1579.25C1378.13 1582.48 1378.42 1586.54 1378.42 1586.54C1378.42 1586.54 1383.22 1589.1 1383.2 1594.14C1383.2 1594.14 1387.62 1596.76 1386.67 1602.48C1386.67 1602.48 1390.92 1605.16 1389.88 1609.25C1389.88 1609.25 1384.18 1614.72 1382.66 1617.36C1381.13 1620 1368.52 1630.55 1354.89 1638.78C1354.89 1638.78 1339.43 1642.15 1332.06 1620.29Z" fill="#EEA886"/>
<path d="M1354.89 1638.78C1354.89 1638.78 1337.4 1646.59 1330.32 1644.54C1323.24 1642.47 1325.84 1621.8 1325.84 1621.8L1335.69 1611.81L1354.89 1638.78Z" fill="#EEA886"/>
<path d="M1177.01 1649.86C1191.49 1641.76 1177.35 1620.49 1177.28 1619.76L1177.3 1619.81C1177.8 1620.92 1181.42 1634.37 1186.17 1650.98C1194.2 1679.03 1205.43 1716.11 1210.21 1717.89C1217.18 1720.49 1324.35 1655.84 1342.94 1644.15L1331.5 1613.79L1229.33 1662.38L1178.07 1525.67C1176.91 1524.72 1168.92 1516.71 1158.86 1511.87C1148.61 1506.92 1136.24 1499.65 1125.04 1493.44C1119.33 1490.28 1113.93 1487.38 1109.26 1485.21L1108.55 1484.89L1108.53 1484.88C1100.82 1481.3 1095.69 1478.93 1095.69 1478.93C1095.69 1478.93 1095.67 1478.93 1095.66 1478.93C1095.48 1478.92 1094.27 1478.8 1092.3 1478.61C1081.54 1477.57 1048.06 1474.39 1036.84 1473.73C1035.92 1473.66 1035.15 1473.63 1034.55 1473.62C1034.04 1473.59 1033.66 1473.59 1033.42 1473.61C1032 1473.7 1025.1 1476.14 1016.03 1479.64C1015.69 1479.77 1015.35 1479.9 1014.99 1480.04C1014.57 1480.2 1014.14 1480.36 1013.7 1480.53C1012.93 1480.84 1012.12 1481.14 1011.31 1481.46C1009.69 1482.1 1008.03 1482.76 1006.33 1483.44C1005.75 1483.68 1005.16 1483.9 1004.57 1484.14C986.415 1491.44 965.629 1500.46 960.692 1504.05C957.428 1506.43 947.252 1525.83 935.471 1549.83C920.293 1599.1 901.047 1674.5 900.455 1693.1C900.442 1693.4 900.442 1693.68 900.442 1693.94C900.442 1696.08 904.431 1704.65 910.815 1716.99C920.148 1698.09 927.467 1682.57 929.863 1676.86C937.722 1658.06 978.227 1614.96 978.227 1614.96C978.227 1614.96 978.227 1614.99 978.24 1615.04C978.24 1615.07 978.253 1615.08 978.253 1615.09C978.266 1615.11 978.266 1615.13 978.266 1615.15C978.279 1615.21 978.306 1615.27 978.319 1615.32C978.345 1615.43 978.371 1615.55 978.411 1615.69C978.437 1615.76 978.464 1615.84 978.477 1615.92C978.49 1615.97 978.516 1616.04 978.516 1616.09C980.728 1624.41 994.273 1676.43 994.76 1702.06C995.313 1729.95 1002.5 1781.57 1002.5 1781.57H1002.53L1010.99 1782.77L1029.7 1785.45L1031.95 1785.75L1037.38 1786.53L1087.01 1793.61L1104.61 1796.12L1106.98 1796.45L1117.05 1797.89L1144.83 1801.85L1151.91 1802.85L1151.98 1802.86L1157.28 1803.62L1164.61 1804.66C1164.61 1804.66 1164.61 1804.66 1164.63 1804.65C1164.82 1804.38 1171.76 1794.77 1170.68 1773.41C1170.68 1773.41 1149.36 1665.33 1177.01 1649.86Z" fill="#DECBC4"/>
<path d="M1071.66 1332.88C1071.66 1332.88 1127.99 1314.6 1121.26 1389.05C1114.54 1463.5 1101.22 1470.5 1065.21 1458.43C1029.22 1446.38 1028.22 1399.16 1024.47 1376.3C1020.72 1353.43 1053.4 1335.34 1071.66 1332.88Z" fill="#EEA886"/>
<path d="M1101.24 1494.05C1101.24 1494.05 1078.18 1523.67 1035.78 1502.43C1035.78 1502.43 1039.61 1442.39 1032.34 1413.96C1025.09 1385.52 1088.74 1453.97 1088.74 1453.97C1088.01 1454.43 1087.76 1457.23 1087.99 1461.15C1088.18 1464.49 1088.72 1468.62 1089.62 1472.83C1091.63 1482.33 1095.46 1492.2 1101.24 1494.05Z" fill="#EEA886"/>
<path d="M1030.55 1411.64C1030.55 1411.64 1030.03 1388.42 1038.28 1386.96C1046.55 1385.49 1048.64 1394.68 1048.64 1394.68L1057.18 1395.53C1057.18 1395.53 1052.76 1375.53 1060.76 1371.25C1068.77 1366.97 1115.58 1377.57 1121.74 1371.04C1127.89 1364.5 1121.16 1323.74 1108.61 1319.2C1096.06 1314.67 1061.63 1305.07 1038.67 1323.99C1038.67 1323.99 1019.46 1323.5 1017.99 1339.31C1016.53 1355.11 1024.37 1400.55 1030.55 1411.64Z" fill="#3A3F47"/>
<path d="M1089.62 1472.83C1046.98 1463.59 1041.65 1438.56 1041.57 1438.18C1057.31 1460.74 1087.99 1461.15 1087.99 1461.15C1088.18 1464.49 1088.72 1468.62 1089.62 1472.83Z" fill="#A77860"/>
<path d="M1354.17 1606.33C1354.17 1606.33 1356.11 1615.47 1355.37 1618.31C1354.63 1621.15 1373.8 1620.48 1373.8 1620.48C1373.8 1620.48 1365.19 1604.25 1354.17 1606.33Z" fill="#CF8C6C"/>
<path d="M1368.22 1577.15C1368.22 1577.15 1350.64 1591.98 1352.66 1595.14C1354.66 1598.3 1357.29 1598.22 1357.29 1598.22L1352.79 1607.65C1352.79 1607.65 1353.29 1615.6 1361.69 1612.73C1361.69 1612.73 1361.4 1620.2 1369.18 1616.44C1369.18 1616.44 1371.15 1621.45 1375.06 1620.36C1378.97 1619.27 1389.88 1609.25 1389.88 1609.25C1389.88 1609.25 1391.24 1606.09 1386.67 1602.48C1386.67 1602.48 1387.91 1597.05 1383.2 1594.14C1383.2 1594.14 1383.06 1587.81 1377.96 1584.7C1377.96 1584.7 1376.73 1577.21 1370.12 1575.74C1370.12 1575.74 1368.94 1576.53 1368.22 1577.15Z" fill="#DB9C7C"/>
<path d="M1336.65 1598.76C1336.65 1598.76 1351.96 1595.26 1361.15 1597.08C1363.21 1597.49 1365.16 1598.26 1365.57 1600.38C1365.97 1602.49 1363.48 1605.76 1356.92 1607.61C1350.37 1609.47 1342.73 1614.91 1342.73 1614.91C1342.73 1614.91 1335.44 1614.81 1336.65 1598.76Z" fill="#EEA886"/>
<path d="M1205.91 2369.43C1205.91 2369.43 1222.68 2388.39 1239.71 2392.36C1256.73 2396.34 1268.65 2401.4 1268.78 2412.3C1268.91 2423.18 1219.77 2430.35 1200.29 2419.38C1171.21 2403 1168.25 2407.94 1165.02 2399.75C1161.8 2391.56 1168.9 2369.67 1168.68 2367.07C1168.43 2363.85 1205.91 2369.43 1205.91 2369.43Z" fill="#353A3D"/>
<path d="M1204.02 2360.35C1204.02 2360.35 1206.24 2369.23 1205.91 2369.43C1205.58 2369.61 1167.53 2374.2 1168.68 2367.07C1169.61 2361.28 1170.96 2355 1170.96 2355L1204.02 2360.35Z" fill="#81807E"/>
<path d="M1034.78 2374.36C1034.78 2374.36 1047.13 2392.84 1063.62 2397.11C1079.9 2401.31 1090.45 2409.31 1091.24 2419.89C1092.04 2430.47 1052.88 2444.32 1025.35 2425.74C1007.28 2413.53 1000.53 2414.22 996.893 2406.46C993.246 2398.71 998.801 2376.96 998.433 2374.44C997.985 2371.33 1034.78 2374.36 1034.78 2374.36Z" fill="#353A3D"/>
<path d="M1034.28 2365.23C1034.28 2365.23 1035.09 2374.16 1034.78 2374.36C1034.48 2374.57 998.209 2381.48 998.433 2374.44C998.604 2368.85 1000.74 2361.89 1000.74 2361.89L1034.28 2365.23Z" fill="#81807E"/>
<path d="M1169.43 1828.33C1169.43 1828.33 1186.5 1953.48 1193.69 2000.07C1202.1 2054.56 1203.59 2084.58 1205.95 2112.78C1208.9 2148.25 1207.59 2348.66 1209.66 2359.03C1211.73 2369.4 1163.84 2361.89 1163.84 2361.89C1163.84 2361.89 1140.27 2133.94 1131.48 2096.17C1123.3 2061 1092.92 1909.58 1085.46 1919.18C1077.99 1928.79 1068.73 2095.89 1063.2 2123.62C1057.67 2151.36 1040.69 2370.53 1040.69 2370.53C1040.69 2370.53 1002.74 2376.2 992.588 2367.52C992.588 2367.52 987.981 2180.36 991.496 2128.36C992.838 2108.54 968.578 1890.73 999.697 1803.05C1016.14 1756.71 1169.43 1828.33 1169.43 1828.33Z" fill="#2D3133"/>
<path d="M1164.63 1804.65C1164.63 1804.65 1168.35 1809.18 1169.43 1828.33C1169.43 1828.33 1015.93 1810.2 999.697 1803.05C999.697 1803.05 999.065 1781.93 1002.5 1781.57C1006.28 1781.17 1164.63 1804.65 1164.63 1804.65Z" fill="#495055"/>
<path d="M1037.58 1785.31C1037.58 1785.31 1034.23 1806.72 1033.94 1812.29L1026.84 1810.85C1026.84 1810.85 1028.79 1788.21 1029.95 1784.42L1037.58 1785.31Z" fill="#2D3133"/>
<path d="M1151.82 1802.16C1151.82 1802.16 1154.5 1821.61 1154.57 1828.96L1147.05 1827.97C1147.05 1827.97 1145.51 1803.68 1144.66 1801.14L1151.82 1802.16Z" fill="#2D3133"/>
<path d="M977.542 1739.72C977.542 1739.72 957.573 1705.52 956.164 1685.73C953.795 1652.9 978.24 1615.04 978.24 1615.04C978.24 1615.07 978.253 1615.08 978.253 1615.09C978.266 1615.11 978.266 1615.13 978.266 1615.15C978.292 1615.21 978.306 1615.27 978.319 1615.32C978.358 1615.44 978.385 1615.56 978.411 1615.69C978.437 1615.76 978.464 1615.84 978.477 1615.92C978.49 1615.99 978.516 1616.04 978.516 1616.09C983.413 1635.63 985.44 1707.72 985.44 1707.72C986.151 1727.52 977.542 1739.72 977.542 1739.72ZM1036.73 1506.4C1026.42 1491.56 1017.8 1481.62 1016.13 1479.73C1016.09 1479.7 1016.06 1479.66 1016.03 1479.64C1015.69 1479.77 1015.35 1479.9 1014.99 1480.04C1014.57 1480.2 1014.14 1480.36 1013.72 1480.53C1012.93 1480.84 1012.12 1481.14 1011.32 1481.46C1009.69 1482.1 1008.03 1482.76 1006.33 1483.44C1005.75 1483.68 1005.16 1483.9 1004.57 1484.14C985.914 1491.56 948.45 1504.44 943.501 1508.03C940.657 1510.09 935.352 1536.14 927.981 1560.06C912.803 1609.32 900.89 1674.55 900.455 1693.1C900.455 1693.4 900.442 1693.68 900.442 1693.94C900.442 1696.08 904.431 1704.65 910.815 1716.99C920.688 1736.05 936.247 1764.1 951.609 1791.3C948.779 1796.65 946.041 1801.94 943.501 1807.13C939.788 1814.7 936.524 1822.04 934.089 1828.96C930.587 1838.89 925.716 1864.36 935.036 1869.08L984.137 1896.54C989.469 1878.37 1032.51 1784.71 1032.51 1784.71C1046.7 1758.48 1062.7 1736.55 1067.81 1704.38C1068.29 1701.28 1068.75 1698.18 1069.2 1695.13C1069.94 1690.02 1070.62 1684.97 1071.24 1680.03C1071.48 1678.17 1071.7 1676.31 1071.93 1674.49C1074.48 1653.02 1076.01 1633.89 1077.24 1620.57C1081.08 1579.07 1055.99 1534.15 1036.73 1506.4Z" fill="#2A76E8"/>
<path d="M1340.34 1650C1339.32 1655.83 1213.33 1723.76 1205.56 1720.87C1203.81 1720.21 1200.84 1714.83 1197.28 1706.85C1193.73 1698.88 1189.58 1688.33 1185.49 1677.38C1182.44 1669.22 1179.41 1660.84 1176.67 1653.15C1176.62 1652.99 1176.56 1652.84 1176.5 1652.68C1173.23 1670.13 1167.6 1688.5 1169.1 1708.02C1169.1 1708.05 1169.1 1708.06 1169.1 1708.08C1167.56 1798.58 1194.45 1865.38 1202.1 1890.34C1203.38 1894.51 1200.05 1899.26 1196.88 1902.22L1190.6 1908.1L1181.62 1916.49C1181.62 1916.49 1169.97 1862.62 1161.74 1827.41C1161.52 1826.47 1161.31 1825.52 1161.1 1824.59C1159.23 1816.37 1157.86 1809.09 1157.28 1803.62V1803.57C1154.34 1775.67 1145.14 1738.29 1141.11 1701.86V1701.85C1136.01 1655.64 1130.7 1609.85 1126.91 1582.96C1126.58 1580.69 1126.27 1578.47 1125.95 1576.29C1125.83 1575.38 1125.7 1574.5 1125.57 1573.62C1125.54 1573.47 1125.52 1573.31 1125.49 1573.15C1125.31 1571.85 1125.11 1570.55 1124.91 1569.27C1124.88 1569.06 1124.84 1568.82 1124.82 1568.61C1124.53 1566.67 1124.24 1564.78 1123.95 1562.93C1123.95 1562.91 1123.95 1562.91 1123.95 1562.91C1115.46 1507.65 1108.89 1485.5 1108.89 1485.5L1109.26 1485.21C1113.72 1487.3 1119.01 1489.76 1124.63 1492.38C1136.4 1497.88 1149.65 1504.12 1160.12 1509.16C1170.18 1514.01 1179.49 1518.89 1180.66 1519.84L1233.55 1656.46L1325.54 1611.93C1331 1624.79 1340.34 1650 1340.34 1650Z" fill="#2A76E8"/>
<path d="M1028.99 1540.2L1051.68 1553.16L1041.98 1563.18L1067.79 1704.38C1073.06 1671.29 1075.45 1639.86 1077.23 1620.57C1083.17 1556.43 1019.97 1484.06 1016.03 1479.64C1012.99 1480.8 1009.71 1482.09 1006.33 1483.44L1028.99 1540.2Z" fill="#0253CC"/>
<path d="M1101.76 1481.74C1101.76 1481.74 1117.03 1512.93 1126.9 1582.96C1130.69 1609.85 1136.01 1655.64 1141.12 1701.85L1146.41 1569.61L1135.59 1557.74L1145.2 1545.58L1122.13 1491.22C1116.53 1488.58 1113.73 1487.29 1109.26 1485.21L1101.76 1481.74Z" fill="#0253CC"/>
<path d="M1014.89 1479.92L1036.78 1468.34C1036.78 1468.34 1041.98 1486.49 1080.84 1506.09L1067.6 1543.84L1014.89 1479.92Z" fill="#F5E2D9"/>
<path d="M1089.62 1472.83C1089.62 1472.83 1092.5 1484.89 1080.84 1506.09L1106.67 1540.2L1101.76 1481.74L1089.62 1472.83Z" fill="#F5E2D9"/>
<path d="M1080.76 1506.09C1080.76 1506.09 1075.76 1526.37 1077.56 1532.06C1077.56 1532.06 1088.57 1536.11 1096.48 1531.04C1096.48 1531.04 1090.87 1516.84 1080.76 1506.09Z" fill="#495055"/>
<path d="M1106.64 1798.6C1109.44 1784.27 1106.77 1741.4 1106.65 1739.59L1104.26 1739.73C1104.28 1740.17 1107.02 1784.11 1104.28 1798.12L1106.64 1798.6Z" fill="#AD9F99"/>
<path d="M1087.04 1791.99C1087.04 1791.99 1109.63 1794.73 1117.09 1796.61L1116.12 1822.25L1086.54 1819.06L1087.04 1791.99Z" fill="#3480B5"/>
<path d="M1091.99 1529.22C1091.99 1529.22 1117.17 1593.66 1113.06 1665.79C1108.81 1740.59 1101.82 1767.71 1101.82 1767.71L1086.29 1787.43L1079.43 1763.19C1079.43 1763.19 1100.28 1667.83 1086.83 1575.05C1084.38 1558.23 1080.76 1526.37 1080.76 1526.37L1091.99 1529.22Z" fill="#495055"/>
<path d="M1185.49 1677.38C1182.44 1669.22 1179.41 1660.84 1176.67 1653.15C1176.62 1652.99 1176.57 1652.84 1176.5 1652.68C1176.5 1652.68 1176.63 1637.31 1175.79 1620C1175 1603.61 1173.34 1585.49 1169.89 1577.01C1170.35 1577.78 1184.96 1603.21 1186.17 1650.98C1186.39 1659.12 1186.2 1667.94 1185.49 1677.38Z" fill="#0253CC"/>
<path d="M1017.92 1836.92C1017.92 1836.92 1023.31 1847.87 1028.72 1849.7C1034.13 1851.52 1042 1860.42 1042 1860.42L1003.95 1880.73C1003.95 1880.73 993.812 1860.66 993.365 1847.87C992.904 1835.09 1017.92 1836.92 1017.92 1836.92Z" fill="#EEA886"/>
<path d="M1019.89 1834.6L1022.42 1839.73C1022.43 1839.69 998.275 1857.55 991.733 1858.78L989.495 1851.94L1019.89 1834.6Z" fill="#DECBC4"/>
<path d="M977.542 1739.72L1024.17 1833.29L987.191 1854.87L951.609 1791.3C951.609 1791.3 954.584 1748.95 977.542 1739.72Z" fill="#2A76E8"/>
<path d="M1377.96 1584.7C1377.96 1584.7 1357.15 1597.89 1356.07 1600.2C1354.99 1602.49 1350 1594.8 1351.06 1592.9C1352.12 1591 1367.52 1576.97 1369.35 1575.95C1371.18 1574.93 1378.94 1578.31 1377.96 1584.7Z" fill="#EEA886"/>
<path d="M1365.33 1577.98C1365.33 1577.98 1399.03 1561.71 1400.82 1565.91C1402.61 1570.11 1399.36 1571.71 1372.38 1587.6C1346.14 1603.05 1365.33 1577.98 1365.33 1577.98Z" fill="#EEA886"/>
<path d="M983.755 1848.75L943.501 1807.13C946.041 1801.94 948.779 1796.65 951.609 1791.3L983.755 1848.75Z" fill="#0253CC"/>
<path d="M1861.75 1905.4C1861.75 1905.4 1865.92 1912.34 1866.45 1918C1866.87 1922.49 1870.58 1929.19 1872.2 1932.89C1873.81 1936.6 1879 1953.35 1879.18 1957.71C1879.26 1959.5 1875.34 1970.74 1875.89 1974.32C1876.44 1977.92 1878.48 1985.03 1875.3 1985.51C1872.11 1985.98 1868.49 1980.15 1868.49 1980.15C1868.49 1980.15 1868.79 1983.46 1866.1 1984.73C1860.86 1987.18 1858.08 1985.02 1858.08 1985.02C1858.08 1985.02 1856.14 1988.66 1853.72 1989.14C1848.36 1990.22 1845.74 1988.05 1845.74 1988.05C1845.74 1988.05 1843.39 1990.1 1839.69 1990.02C1834.96 1989.93 1832.98 1985.79 1832.98 1985.79C1832.98 1985.79 1826.99 1987.02 1825.25 1984.18C1823.51 1981.35 1823.81 1978.34 1823.09 1975.76C1822.37 1973.2 1822.92 1950.03 1830.69 1933.35C1838.45 1916.66 1828.71 1900.39 1828.71 1900.39L1861.75 1905.4Z" fill="#EEA886"/>
<path d="M1869.33 1977.98C1869.33 1977.98 1869.87 1957.19 1864.46 1952.76C1859.07 1948.33 1858.45 1955.84 1858.45 1955.84C1858.45 1955.84 1859.19 1948.43 1853.29 1947.43C1847.38 1946.43 1847.14 1955.23 1847.14 1955.23C1847.14 1955.23 1846.17 1949.51 1839.97 1950.68C1833.77 1951.87 1835.24 1959.16 1835.24 1959.16C1835.24 1959.16 1829.33 1952 1825.49 1958.88C1819 1970.48 1825.25 1984.18 1825.25 1984.18C1825.25 1984.18 1827.08 1987.33 1832.98 1985.79C1832.98 1985.79 1836.93 1993.85 1845.74 1988.05C1845.74 1988.05 1854.79 1993.09 1858.08 1985.02C1858.08 1985.02 1868.04 1989.81 1869.33 1977.98Z" fill="#DB9C7C"/>
<path d="M1931.36 1605.94C1931.36 1605.94 1896.23 1724.55 1884.35 1768.3C1880.64 1782.02 1871.62 1913.05 1870.03 1918.33C1868.45 1923.61 1823.89 1930.84 1823.89 1930.84C1823.89 1930.84 1829.29 1766.91 1829.79 1757.96C1830.29 1749.03 1878.96 1565.97 1893.11 1559.43C1903.7 1554.55 1909.31 1558.59 1922.67 1568.65C1941.42 1582.74 1931.36 1605.94 1931.36 1605.94Z" fill="#323657"/>
<path d="M2277.86 1445.84L2273.95 1439.79L2354.37 1386.48L2358.26 1392.53L2277.86 1445.84Z" fill="#4DA8F2"/>
<path d="M2366.85 1417.13C2366.85 1417.13 2366.08 1421.73 2364.77 1423.59C2364.77 1423.59 2362.15 1426.76 2360.41 1429.14C2359.86 1429.9 2359.39 1430.56 2359.14 1431.03C2358.09 1432.98 2356.34 1437.55 2352.5 1441.48C2348.68 1445.43 2333.75 1457.94 2333.75 1457.94L2320.97 1446.95L2307.71 1440.92C2307.71 1440.92 2315.14 1408.21 2318.28 1404.13C2318.6 1403.73 2318.92 1403.35 2319.25 1403.01C2322.25 1399.81 2325.8 1398.72 2327.56 1397.23C2328.21 1396.68 2335.04 1391.69 2337.46 1392.33C2340.85 1393.22 2342.83 1395.23 2343.6 1397.52C2343.6 1397.52 2350.14 1399.56 2352.69 1403.44C2352.69 1403.44 2358.78 1405.12 2360.59 1410.87C2360.59 1410.87 2366.58 1413.27 2366.85 1417.13Z" fill="#EFAA88"/>
<path d="M1902.85 2415.77C1902.85 2415.77 1899.65 2438.29 1899.26 2441.66C1898.85 2445.05 1863.63 2439.68 1863.63 2439.68L1860.78 2412.87C1860.78 2412.87 1898.45 2412.59 1902.85 2415.77Z" fill="#424773"/>
<path d="M1899.62 2438.81C1899.62 2438.81 1910.79 2452.37 1921.58 2458.28C1932.38 2464.2 1949.33 2466.55 1955.71 2472.67C1960.32 2477.08 1972.5 2496.11 1927.68 2495.72C1882.84 2495.34 1861.23 2498.4 1856.42 2491.11C1851.62 2483.81 1863.37 2437.28 1863.37 2437.28C1863.37 2437.28 1873.99 2441.14 1899.62 2438.81Z" fill="#292C47"/>
<path d="M2155.22 2415.77C2155.22 2415.77 2152.03 2438.29 2151.63 2441.66C2151.22 2445.05 2116.01 2439.68 2116.01 2439.68L2113.15 2412.87C2113.15 2412.87 2150.83 2412.59 2155.22 2415.77Z" fill="#424773"/>
<path d="M2152 2438.81C2152 2438.81 2163.16 2452.37 2173.96 2458.28C2184.75 2464.2 2224.47 2469.05 2230.85 2475.17C2235.46 2479.6 2243.12 2497.39 2180.04 2495.72C2135.23 2494.54 2113.6 2498.4 2108.8 2491.11C2103.99 2483.81 2115.75 2437.28 2115.75 2437.28C2115.75 2437.28 2125.75 2441.41 2152 2438.81Z" fill="#292C47"/>
<path d="M1932.02 1837.2C1932.02 1837.2 1898.93 1890.47 1901.4 1938.61C1903.86 1986.77 1889.4 2039.33 1884.42 2089.63C1878.88 2145.71 1856.2 2278.46 1855.38 2308.45C1854.55 2338.45 1858.9 2434.22 1858.9 2434.22L1904.3 2435.27C1904.3 2435.27 1942.43 2203.19 1952.31 2179.52C1962.19 2155.84 2011.16 1987.02 2012.81 1968.07C2014.45 1949.13 1932.02 1837.2 1932.02 1837.2Z" fill="#292C47"/>
<path d="M2106.24 1844.41C2106.24 1844.41 2131.19 1976.39 2134.48 2005.86C2137.77 2035.33 2139.97 2148.47 2141.61 2166.89C2143.26 2185.31 2156.99 2407.36 2161.36 2435.27H2103.32C2103.32 2435.27 2058.76 2273.45 2058.76 2196.89C2058.76 2120.32 2024.34 2030.44 2002.12 1979.91C1979.9 1929.4 1929.03 1928.2 1915.37 1834.48C1915.37 1834.48 2087.75 1814.69 2106.24 1844.41Z" fill="#292C47"/>
<path d="M1987.24 1389.37C1987.24 1389.37 2031.67 1372.56 2052.15 1406.81C2072.64 1441.07 2070.66 1509.64 2048.27 1518.08C2025.88 1526.51 1992.24 1522.11 1980.78 1500.66C1969.31 1479.24 1958.97 1448.24 1959.47 1427.54C1959.97 1406.83 1975.58 1395.35 1987.24 1389.37Z" fill="#EEA886"/>
<path d="M2043.45 1519.64C2043.45 1519.64 2041.6 1531.8 2044.66 1537.78C2047.72 1543.76 1987.11 1543.92 1987.11 1543.92C1987.11 1543.92 1982.19 1511.37 1972.85 1483.86C1963.53 1456.35 2043.45 1519.64 2043.45 1519.64Z" fill="#EEA886"/>
<path d="M1972.85 1483.86C1972.85 1483.86 1977.04 1490.85 1994.11 1488.14C2011.19 1485.42 2032.03 1462.42 2039.15 1459.89C2046.28 1457.37 2046.35 1453.13 2046.35 1453.13L2050.81 1459.73L2058.38 1460.21C2058.38 1460.21 2051.48 1439.63 2061.89 1431.23C2072.32 1422.83 2051.09 1364.59 1996.33 1383.98C1996.33 1383.98 1954.27 1395.73 1955.79 1419.96C1957.32 1444.19 1963.44 1471.79 1972.85 1483.86Z" fill="#D88A51"/>
<path d="M2048.26 1537.06C2048.26 1537.06 2048.06 1525.63 2042.95 1524.53C2037.83 1523.43 1986.47 1518.43 1980.19 1520.93V1534.26C1980.19 1534.26 1992.28 1541.8 2048.26 1537.06Z" fill="#E2D2CA"/>
<path d="M2045.22 1444.31C2044.25 1440.24 2034.05 1428.63 2030.14 1441.06C2026.25 1453.5 2036.05 1470.22 2041.53 1468.79C2046.99 1467.37 2047.64 1454.61 2045.22 1444.31Z" fill="#EEA886"/>
<path d="M2133.2 1554.38C2097.99 1549.67 2048.26 1537.06 2048.26 1537.06L1980.19 1534.26C1980.19 1534.26 1917.71 1548.18 1893.11 1559.43C1890.78 1560.5 1890.77 1615.89 1884.35 1630.43L1904.76 1674.02C1904.76 1674.02 1916.54 1760.36 1918.99 1798.77C1920.11 1816.41 1894.69 1964.1 1894.69 1964.1C1894.69 1964.1 1921.92 1972.22 1968.38 1977.4C2014.85 1982.59 2130.91 1975.54 2131.65 1969.98C2132.39 1964.42 2109.17 1763 2108.14 1752.58C2106.56 1736.56 2113.59 1651.5 2113.59 1651.5C2124.32 1643.07 2218.49 1598.78 2244.19 1575.7C2251.06 1569.53 2280.08 1540.9 2288.34 1531.02C2317.55 1496.02 2341.49 1466.01 2344.41 1459.53C2347.72 1455.85 2311.72 1435.99 2308.54 1434.91C2305.75 1433.96 2267.21 1486.37 2252.02 1503.04C2245.24 1510.48 2217.07 1531.24 2217.07 1531.24C2217.07 1531.24 2155.24 1555.66 2133.2 1554.38Z" fill="#323657"/>
<path d="M1974.59 1393.41C1974.59 1393.41 1917.96 1397.89 1972.85 1483.86L1974.59 1393.41Z" fill="#D88A51"/>
<path d="M2358.26 1392.53L2362.91 1385.34L2354.37 1386.48L2358.26 1392.53Z" fill="#DFE1E8"/>
<path d="M3160.59 480.931C3159.87 476.881 3158.25 473.175 3156.01 470.113C3155.53 469.446 3155.04 468.848 3154.5 468.251C3150.51 463.786 3144.92 461 3138.81 461H3023.19C3017.08 461 3011.51 463.786 3007.5 468.251C3006.97 468.848 3006.47 469.446 3006 470.113C3003.75 473.174 3002.13 476.881 3001.43 480.931C3001.15 482.494 3001 484.11 3001 485.743V576.26C3001 579.732 3001.66 583.07 3002.84 586.085C3003.93 588.962 3005.54 591.566 3007.5 593.749C3008 594.302 3008.49 594.81 3009.03 595.315C3012.87 598.859 3017.83 601 3023.19 601H3138.81C3144.17 601 3149.15 598.859 3152.97 595.292C3153.51 594.81 3154 594.302 3154.5 593.749C3156.46 591.566 3158.07 588.962 3159.18 586.085V586.062C3160.36 583.048 3161 579.732 3161 576.26V485.743C3161 484.11 3160.86 482.494 3160.59 480.931ZM3015.53 477.202C3017.52 474.994 3020.18 473.658 3023.19 473.658H3138.81C3141.82 473.658 3144.51 474.994 3146.47 477.202C3146.82 477.595 3147.15 478.034 3147.44 478.469L3086.84 537.341C3085.17 538.974 3083.11 539.781 3081 539.781C3078.91 539.781 3076.85 538.974 3075.16 537.341L3014.59 478.444C3014.85 478.009 3015.18 477.595 3015.53 477.202ZM3012.35 576.26V491.542L3056.21 534.188L3012.38 576.788C3012.35 576.626 3012.35 576.444 3012.35 576.26ZM3138.81 588.34H3023.19C3021.23 588.34 3019.39 587.765 3017.83 586.754L3064.07 541.829L3068.39 546.016C3072 549.516 3076.52 551.288 3081 551.288C3085.5 551.288 3090.02 549.516 3093.64 546.016L3097.95 541.829L3144.18 586.754C3142.61 587.765 3140.77 588.34 3138.81 588.34ZM3149.65 576.26C3149.65 576.444 3149.65 576.626 3149.62 576.788L3105.8 534.212L3149.65 491.565V576.26Z" fill="#07C907"/>
<path fill-rule="evenodd" clip-rule="evenodd" d="M1008.01 397.049H1001.34V411.136C1001.34 412.072 1001.69 412.967 1002.31 413.629L1010.04 421.771L1014.75 416.791L1008.01 409.678V397.049Z" fill="white"/>
<path fill-rule="evenodd" clip-rule="evenodd" d="M1004.68 435.787C991.796 435.787 981.318 424.729 981.318 411.136C981.318 397.542 991.796 386.484 1004.68 386.484C1017.56 386.484 1028.04 397.542 1028.04 411.136C1028.04 424.729 1017.56 435.787 1004.68 435.787ZM1004.68 379.44C988.119 379.44 974.645 393.661 974.645 411.136C974.645 428.61 988.119 442.831 1004.68 442.831C1021.23 442.831 1034.71 428.61 1034.71 411.136C1034.71 393.661 1021.23 379.44 1004.68 379.44Z" fill="white"/>
<path fill-rule="evenodd" clip-rule="evenodd" d="M1014.69 344.224H927.928V333.659C927.928 331.715 929.429 330.137 931.265 330.137H941.275V333.659C941.275 335.603 942.77 337.18 944.612 337.18C946.454 337.18 947.949 335.603 947.949 333.659V330.137H994.666V333.659C994.666 335.603 996.161 337.18 998.003 337.18C999.845 337.18 1001.34 335.603 1001.34 333.659V330.137H1011.35C1013.19 330.137 1014.69 331.715 1014.69 333.659V344.224ZM1011.35 323.093H1001.34V319.572C1001.34 317.628 999.845 316.05 998.003 316.05C996.161 316.05 994.666 317.628 994.666 319.572V323.093H947.949V319.572C947.949 317.628 946.454 316.05 944.612 316.05C942.77 316.05 941.275 317.628 941.275 319.572V323.093H931.265C925.745 323.093 921.254 327.834 921.254 333.659V435.787H967.971V428.744H927.928V351.267H1014.69V372.397H1021.36V333.659C1021.36 327.834 1016.87 323.093 1011.35 323.093Z" fill="white"/>
<path d="M284.659 1124.35L187.363 965.019C179.375 951.957 183.477 934.901 196.538 926.913C209.636 918.925 226.691 923.063 234.643 936.125L303.477 1048.79L486.447 940.514C499.616 932.706 516.636 937.061 524.408 950.266C532.216 963.436 527.862 980.419 514.693 988.227L284.659 1124.35Z" fill="#07C907"/>
<path d="M350 720.015C184.589 720.015 50.0154 854.589 50.0154 1020C50.0154 1185.41 184.589 1319.98 350 1319.98C515.411 1319.98 650.021 1185.41 650.021 1020C650.021 854.589 515.411 720.015 350 720.015ZM350 1370C157.027 1370 0 1212.97 0 1020C0 827.027 157.027 670 350 670C543.009 670 700 827.027 700 1020C700 1212.97 543.009 1370 350 1370Z" fill="#07C907"/>
</g>
<defs>
<filter id="filter0_dd_0_200" x="1324.75" y="85.5275" width="121.848" height="75.3556" filterUnits="userSpaceOnUse" color-interpolation-filters="sRGB">
<feFlood flood-opacity="0" result="BackgroundImageFix"/>
<feColorMatrix in="SourceAlpha" type="matrix" values="0 0 0 0 0 0 0 0 0 0 0 0 0 0 0 0 0 0 127 0" result="hardAlpha"/>
<feOffset dy="4"/>
<feGaussianBlur stdDeviation="2"/>
<feComposite in2="hardAlpha" operator="out"/>
<feColorMatrix type="matrix" values="0 0 0 0 0 0 0 0 0 0 0 0 0 0 0 0 0 0 0.25 0"/>
<feBlend mode="normal" in2="BackgroundImageFix" result="effect1_dropShadow_0_200"/>
<feColorMatrix in="SourceAlpha" type="matrix" values="0 0 0 0 0 0 0 0 0 0 0 0 0 0 0 0 0 0 127 0" result="hardAlpha"/>
<feOffset dy="4"/>
<feGaussianBlur stdDeviation="2"/>
<feComposite in2="hardAlpha" operator="out"/>
<feColorMatrix type="matrix" values="0 0 0 0 0 0 0 0 0 0 0 0 0 0 0 0 0 0 0.25 0"/>
<feBlend mode="normal" in2="effect1_dropShadow_0_200" result="effect2_dropShadow_0_200"/>
<feBlend mode="normal" in="SourceGraphic" in2="effect2_dropShadow_0_200" result="shape"/>
</filter>
<filter id="filter1_dd_0_200" x="1264.28" y="0.997559" width="238.98" height="242.002" filterUnits="userSpaceOnUse" color-interpolation-filters="sRGB">
<feFlood flood-opacity="0" result="BackgroundImageFix"/>
<feColorMatrix in="SourceAlpha" type="matrix" values="0 0 0 0 0 0 0 0 0 0 0 0 0 0 0 0 0 0 127 0" result="hardAlpha"/>
<feOffset dy="4"/>
<feGaussianBlur stdDeviation="2"/>
<feComposite in2="hardAlpha" operator="out"/>
<feColorMatrix type="matrix" values="0 0 0 0 0 0 0 0 0 0 0 0 0 0 0 0 0 0 0.25 0"/>
<feBlend mode="normal" in2="BackgroundImageFix" result="effect1_dropShadow_0_200"/>
<feColorMatrix in="SourceAlpha" type="matrix" values="0 0 0 0 0 0 0 0 0 0 0 0 0 0 0 0 0 0 127 0" result="hardAlpha"/>
<feOffset dy="4"/>
<feGaussianBlur stdDeviation="2"/>
<feComposite in2="hardAlpha" operator="out"/>
<feColorMatrix type="matrix" values="0 0 0 0 0 0 0 0 0 0 0 0 0 0 0 0 0 0 0.25 0"/>
<feBlend mode="normal" in2="effect1_dropShadow_0_200" result="effect2_dropShadow_0_200"/>
<feBlend mode="normal" in="SourceGraphic" in2="effect2_dropShadow_0_200" result="shape"/>
</filter>
<linearGradient id="paint0_linear_0_200" x1="1188.93" y1="601.086" x2="2787.14" y2="601.086" gradientUnits="userSpaceOnUse">
<stop stop-color="#40D5E6"/>
<stop offset="1" stop-color="#5577FF"/>
</linearGradient>
<linearGradient id="paint1_linear_0_200" x1="1408.41" y1="764.293" x2="1408.41" y2="1066.18" gradientUnits="userSpaceOnUse">
<stop stop-color="#D3DAE0"/>
<stop offset="1" stop-color="white"/>
</linearGradient>
<clipPath id="clip0_0_200">
<rect width="3233" height="2497" fill="white"/>
</clipPath>
</defs>
</svg>
