<svg width="21" height="20" viewBox="0 0 21 20" fill="none" xmlns="http://www.w3.org/2000/svg">
<mask id="path-1-inside-1_19_45" fill="white">
<path d="M13.9786 5.55556V1.11111C13.9786 0.816426 14.047 0.533811 14.1688 0.325437C14.2906 0.117063 14.4559 0 14.6281 0H19.8241C19.9964 0 20.1616 0.117063 20.2834 0.325437C20.4052 0.533811 20.4736 0.816426 20.4736 1.11111V18.8889C20.4736 19.1836 20.4052 19.4662 20.2834 19.6746C20.1616 19.8829 19.9964 20 19.8241 20H14.6281C14.4559 20 14.2906 19.8829 14.1688 19.6746C14.047 19.4662 13.9786 19.1836 13.9786 18.8889V14.4444"/>
</mask>
<path d="M15.9786 5.55556C15.9786 6.66013 15.0832 7.55556 13.9786 7.55556C12.874 7.55556 11.9786 6.66013 11.9786 5.55556H15.9786ZM14.6281 0V-2V0ZM19.8241 0L19.8241 -2L19.8241 0ZM20.4736 1.11111H22.4736H20.4736ZM20.4736 18.8889L22.4736 18.8889L20.4736 18.8889ZM11.9786 14.4444C11.9786 13.3399 12.874 12.4444 13.9786 12.4444C15.0832 12.4444 15.9786 13.3399 15.9786 14.4444H11.9786ZM11.9786 5.55556V1.11111H15.9786V5.55556H11.9786ZM11.9786 1.11111C11.9786 0.539803 12.1057 -0.10822 12.4422 -0.683875L15.8955 1.33475C15.948 1.24499 15.9661 1.18061 15.9719 1.15657C15.9784 1.12965 15.9786 1.11565 15.9786 1.11111H11.9786ZM12.4422 -0.683875C12.7623 -1.23142 13.4762 -2 14.6281 -2L14.6281 2C15.4355 2 15.819 1.46554 15.8955 1.33475L12.4422 -0.683875ZM14.6281 -2H19.8241V2H14.6281V-2ZM19.8241 -2C20.976 -2 21.69 -1.23142 22.01 -0.683875L18.5568 1.33475C18.6332 1.46554 19.0168 2 19.8241 2L19.8241 -2ZM22.01 -0.683875C22.3465 -0.108219 22.4736 0.539804 22.4736 1.11111L18.4736 1.11111C18.4736 1.11565 18.4738 1.12964 18.4804 1.15657C18.4862 1.18061 18.5043 1.24499 18.5568 1.33475L22.01 -0.683875ZM22.4736 1.11111V18.8889H18.4736V1.11111H22.4736ZM22.4736 18.8889C22.4736 19.4602 22.3465 20.1082 22.01 20.6839L18.5568 18.6653C18.5043 18.755 18.4862 18.8194 18.4804 18.8434C18.4738 18.8704 18.4736 18.8843 18.4736 18.8889L22.4736 18.8889ZM22.01 20.6839C21.69 21.2314 20.976 22 19.8241 22V18C19.0168 18 18.6332 18.5345 18.5568 18.6653L22.01 20.6839ZM19.8241 22H14.6281V18H19.8241V22ZM14.6281 22C13.4763 22 12.7623 21.2314 12.4422 20.6839L15.8955 18.6653C15.819 18.5345 15.4355 18 14.6281 18V22ZM12.4422 20.6839C12.1057 20.1082 11.9786 19.4602 11.9786 18.8889H15.9786C15.9786 18.8843 15.9784 18.8704 15.9719 18.8434C15.9661 18.8194 15.948 18.755 15.8955 18.6653L12.4422 20.6839ZM11.9786 18.8889V14.4444H15.9786V18.8889H11.9786Z" fill="white" mask="url(#path-1-inside-1_19_45)"/>
<path d="M3.8666 4.89567C4.18218 4.57857 6.22763 2.64368 6.49178 2.64368C6.75594 2.64368 9.0632 3.3043 9.0632 3.3043L11.0315 4.95145L11.9058 7.91691C11.9058 7.91691 12.7801 8.08134 13.5234 8.13712C14.2668 8.19291 14.573 8.41312 14.573 8.90638C14.573 9.39965 14.3533 9.78721 13.7408 9.78721C13.1284 9.78721 11.3798 9.67858 11.1694 9.3468C10.959 9.01502 10.031 6.99792 10.031 6.99792L8.41333 10.1307C8.41333 10.1307 9.90007 11.3933 10.426 11.7867C10.6528 11.9682 10.8211 12.2447 10.9011 12.5671C10.9812 12.8896 10.9677 13.2372 10.8632 13.5484C10.6879 14.0974 9.858 17.01 9.4606 18.0523C9.0632 19.0947 8.41099 19.1504 8.01827 18.8216C7.62554 18.4928 7.62554 17.9408 7.84294 17.2273C8.06034 16.5138 8.98138 13.2166 8.98138 13.2166C8.98138 13.2166 6.53152 11.1848 6.1762 10.8002C5.82088 10.4155 5.95646 9.59049 6.04529 9.09723C6.13412 8.60396 8.06736 4.99256 8.06736 4.99256L6.4497 4.55214C6.05431 4.88934 5.64547 5.20098 5.22478 5.48582C4.5679 5.92624 3.96946 6.44299 3.61881 5.89394C3.43881 5.62676 3.65855 5.10707 3.8666 4.89567Z" fill="white"/>
<path d="M5.13581 10.5007L4.1727 12.4503H1.24129C0.77376 12.4503 0.476878 13.0375 0.476878 13.522C0.467152 13.6502 0.479347 13.7796 0.512648 13.9014C0.545948 14.0232 0.599584 14.1347 0.669967 14.2284C0.740349 14.3221 0.825854 14.3958 0.920756 14.4446C1.01566 14.4934 1.11777 14.5162 1.22025 14.5114H4.89504L6.33737 12.0657C6.0552 11.9375 5.80018 11.7297 5.59189 11.4585C5.3836 11.1872 5.22758 10.8596 5.13581 10.5007Z" fill="white"/>
<path d="M9.99121 1.95659C9.99121 2.43705 10.1432 2.89783 10.4137 3.23757C10.6841 3.57731 11.051 3.76817 11.4335 3.76817C11.8161 3.76817 12.1829 3.57731 12.4534 3.23757C12.7239 2.89783 12.8759 2.43705 12.8759 1.95659C12.8759 1.47613 12.7239 1.01535 12.4534 0.675617C12.1829 0.335881 11.8161 0.14502 11.4335 0.14502C11.051 0.14502 10.6841 0.335881 10.4137 0.675617C10.1432 1.01535 9.99121 1.47613 9.99121 1.95659Z" fill="white"/>
</svg>
